<svg width="612" height="164" viewBox="0 0 612 164" fill="none" xmlns="http://www.w3.org/2000/svg">
<path d="M436.702 150.782C437.401 151.391 437.939 152.109 438.334 152.934C438.71 153.741 438.908 154.745 438.908 155.893C438.908 158.261 438.029 160.18 436.272 161.686C434.514 163.175 432.237 163.928 429.44 163.928C427.952 163.928 426.589 163.659 425.351 163.103C424.114 162.547 423.218 162.045 422.68 161.597L422.16 163.282H420.205L419.936 154.44H421.729C421.873 155.122 422.16 155.911 422.608 156.808C423.056 157.705 423.594 158.53 424.222 159.247C424.885 160.018 425.692 160.664 426.625 161.184C427.557 161.704 428.615 161.955 429.78 161.955C431.43 161.955 432.703 161.579 433.582 160.825C434.479 160.072 434.909 158.996 434.909 157.579C434.909 156.862 434.765 156.234 434.479 155.714C434.192 155.194 433.779 154.727 433.241 154.333C432.667 153.938 431.986 153.579 431.161 153.257C430.336 152.934 429.404 152.629 428.4 152.324C427.593 152.073 426.696 151.75 425.71 151.32C424.724 150.889 423.881 150.405 423.182 149.831C422.429 149.221 421.819 148.486 421.335 147.607C420.851 146.728 420.618 145.706 420.618 144.504C420.618 142.424 421.389 140.666 422.949 139.213C424.491 137.761 426.571 137.043 429.171 137.043C430.175 137.043 431.179 137.187 432.219 137.438C433.259 137.689 434.102 138.012 434.765 138.37L435.357 136.954H437.204L437.581 145.168H435.77C435.411 143.339 434.64 141.868 433.439 140.738C432.255 139.59 430.803 139.016 429.099 139.016C427.7 139.016 426.589 139.375 425.782 140.092C424.975 140.792 424.58 141.671 424.58 142.675C424.58 143.446 424.706 144.092 424.975 144.612C425.244 145.132 425.638 145.562 426.176 145.921C426.696 146.262 427.324 146.585 428.113 146.89C428.884 147.195 429.852 147.535 431 147.912C432.147 148.271 433.205 148.701 434.21 149.185C435.214 149.67 436.039 150.208 436.684 150.782M399.62 158.296V143.392C399.476 142.944 399.261 142.46 398.956 141.94C398.634 141.419 398.257 140.953 397.791 140.523C397.289 140.092 396.697 139.734 396.034 139.464C395.352 139.178 394.581 139.034 393.667 139.034C392.627 139.034 391.676 139.303 390.798 139.841C389.919 140.361 389.148 141.132 388.466 142.137C387.839 143.105 387.319 144.325 386.942 145.814C386.566 147.302 386.386 148.952 386.386 150.764C386.386 152.216 386.53 153.526 386.799 154.709C387.068 155.875 387.552 156.987 388.198 158.009C388.807 158.978 389.578 159.749 390.529 160.341C391.479 160.933 392.591 161.22 393.9 161.22C395.28 161.22 396.428 160.915 397.343 160.323C398.257 159.713 399.01 159.05 399.638 158.332L399.62 158.296ZM408.998 162.78L400.068 163.372L399.674 163.013V160.646L399.458 160.592C398.562 161.597 397.45 162.422 396.141 163.049C394.832 163.677 393.469 164 392.071 164C390.672 164 389.22 163.677 387.875 163.031C386.512 162.386 385.346 161.471 384.342 160.305C383.32 159.121 382.513 157.687 381.922 156.019C381.33 154.351 381.025 152.503 381.025 150.495C381.025 148.647 381.348 146.908 381.975 145.24C382.621 143.59 383.499 142.137 384.611 140.899C385.669 139.751 386.942 138.819 388.484 138.137C390.009 137.456 391.569 137.097 393.165 137.097C394.348 137.097 395.514 137.241 396.661 137.545C397.809 137.85 398.795 138.227 399.62 138.693V129.779C399.62 129.044 399.494 128.381 399.261 127.789C399.01 127.197 398.669 126.73 398.239 126.426C397.755 126.085 397.109 125.852 396.285 125.708C395.46 125.565 394.581 125.457 393.631 125.385V123.789L404.103 123.197L404.497 123.592V157.992C404.497 158.583 404.605 159.104 404.856 159.534C405.089 159.964 405.43 160.305 405.878 160.61C406.201 160.825 406.685 160.951 407.312 161.005C407.922 161.058 408.496 161.094 409.016 161.112V162.798L408.998 162.78ZM370.571 140.989C370.571 141.868 370.356 142.639 369.925 143.321C369.495 144.002 368.832 144.343 367.935 144.343C366.967 144.343 366.231 144.092 365.711 143.608C365.209 143.105 364.958 142.549 364.958 141.957C364.958 141.581 364.976 141.24 365.048 140.935C365.12 140.63 365.156 140.325 365.209 140.003C364.402 140.003 363.47 140.325 362.394 140.989C361.318 141.635 360.404 142.585 359.651 143.787V158.673C359.651 159.283 359.758 159.767 359.991 160.144C360.224 160.538 360.583 160.807 361.103 161.005C361.533 161.184 362.089 161.31 362.771 161.399C363.452 161.489 364.044 161.543 364.528 161.579V163.282H351.008V161.579C351.402 161.543 351.815 161.507 352.245 161.471C352.675 161.435 353.034 161.381 353.339 161.274C353.823 161.112 354.182 160.843 354.415 160.467C354.648 160.072 354.773 159.57 354.773 158.96V143.213C354.773 142.693 354.648 142.155 354.397 141.635C354.146 141.115 353.787 140.702 353.339 140.397C353.016 140.2 352.622 140.038 352.191 139.949C351.743 139.859 351.259 139.787 350.739 139.751V138.048L359.274 137.456L359.633 137.814V141.366H359.776C360.834 139.967 362.018 138.909 363.327 138.173C364.636 137.456 365.819 137.079 366.895 137.079C367.971 137.079 368.849 137.438 369.531 138.137C370.212 138.837 370.553 139.787 370.553 140.989H370.571ZM331.14 149.167C329.669 149.598 328.36 150.028 327.249 150.423C326.137 150.835 325.097 151.356 324.146 151.983C323.268 152.575 322.586 153.257 322.084 154.064C321.582 154.871 321.331 155.821 321.331 156.933C321.331 158.368 321.708 159.408 322.461 160.09C323.214 160.772 324.164 161.094 325.33 161.094C326.549 161.094 327.643 160.789 328.576 160.198C329.508 159.606 330.297 158.906 330.925 158.081L331.14 149.167ZM340.195 162.798C339.37 163.103 338.653 163.336 338.043 163.516C337.416 163.695 336.734 163.785 335.945 163.785C334.583 163.785 333.507 163.462 332.7 162.834C331.893 162.206 331.373 161.292 331.14 160.072H330.978C329.867 161.31 328.665 162.26 327.392 162.906C326.119 163.551 324.559 163.874 322.766 163.874C320.865 163.874 319.287 163.282 318.068 162.117C316.848 160.951 316.221 159.408 316.221 157.525C316.221 156.539 316.364 155.678 316.633 154.889C316.902 154.118 317.315 153.418 317.87 152.79C318.301 152.27 318.875 151.822 319.574 151.409C320.273 150.997 320.955 150.692 321.564 150.441C322.335 150.154 323.913 149.616 326.28 148.809C328.647 148.02 330.261 147.41 331.086 146.961V144.415C331.086 144.181 331.05 143.751 330.942 143.123C330.853 142.496 330.638 141.886 330.333 141.312C329.974 140.684 329.49 140.128 328.862 139.644C328.235 139.178 327.32 138.944 326.155 138.944C325.366 138.944 324.613 139.07 323.931 139.339C323.25 139.608 322.766 139.895 322.497 140.182C322.497 140.523 322.568 141.025 322.73 141.706C322.891 142.37 322.981 142.98 322.981 143.554C322.981 144.164 322.712 144.702 322.174 145.204C321.636 145.706 320.883 145.939 319.915 145.939C319.054 145.939 318.426 145.634 318.032 145.024C317.619 144.415 317.422 143.733 317.422 142.98C317.422 142.227 317.709 141.437 318.265 140.72C318.839 140.003 319.556 139.357 320.47 138.783C321.242 138.299 322.192 137.886 323.304 137.563C324.415 137.223 325.491 137.061 326.549 137.061C328.002 137.061 329.275 137.151 330.351 137.366C331.445 137.563 332.413 137.976 333.291 138.639C334.17 139.267 334.834 140.146 335.3 141.24C335.766 142.334 335.981 143.733 335.981 145.455C335.981 147.912 335.963 150.1 335.909 152.001C335.856 153.902 335.838 155.983 335.838 158.243C335.838 158.906 335.945 159.444 336.196 159.839C336.429 160.233 336.788 160.574 337.272 160.843C337.541 160.987 337.936 161.076 338.51 161.094C339.083 161.112 339.657 161.112 340.249 161.112V162.78L340.195 162.798ZM301.284 127.358C301.284 128.345 300.961 129.206 300.316 129.941C299.67 130.676 298.881 131.053 297.931 131.053C297.052 131.053 296.281 130.694 295.635 129.995C294.99 129.295 294.667 128.506 294.667 127.591C294.667 126.641 294.99 125.816 295.635 125.098C296.281 124.399 297.052 124.04 297.931 124.04C298.917 124.04 299.724 124.381 300.351 125.045C300.979 125.708 301.302 126.479 301.302 127.358H301.284ZM304.512 163.265H292.121V161.561C292.515 161.525 292.928 161.489 293.358 161.453C293.789 161.417 294.147 161.363 294.452 161.256C294.936 161.094 295.295 160.825 295.528 160.449C295.761 160.054 295.886 159.552 295.886 158.942V143.195C295.886 142.657 295.761 142.137 295.51 141.688C295.259 141.24 294.918 140.846 294.47 140.541C294.147 140.325 293.681 140.146 293.053 140.02C292.444 139.877 291.888 139.787 291.368 139.751V138.048L300.387 137.456L300.746 137.814V158.619C300.746 159.229 300.853 159.731 301.087 160.126C301.32 160.52 301.678 160.807 302.18 161.005C302.557 161.148 302.934 161.274 303.292 161.381C303.651 161.471 304.045 161.543 304.494 161.579V163.282L304.512 163.265ZM280.573 163.265H268.129V161.561C268.523 161.525 268.936 161.489 269.384 161.453C269.832 161.399 270.191 161.345 270.496 161.256C270.962 161.094 271.338 160.825 271.571 160.449C271.805 160.054 271.93 159.552 271.93 158.924V129.385C271.93 128.775 271.805 128.183 271.536 127.645C271.267 127.089 270.926 126.677 270.478 126.372C270.173 126.157 269.599 125.977 268.774 125.798C267.949 125.636 267.286 125.529 266.784 125.493V123.807L276.431 123.215L276.79 123.61V158.637C276.79 159.247 276.897 159.731 277.13 160.126C277.345 160.52 277.704 160.807 278.206 161.023C278.583 161.202 278.959 161.328 279.318 161.417C279.694 161.507 280.107 161.561 280.555 161.597V163.3L280.573 163.265ZM257.065 163.265H244.621V161.561C245.015 161.525 245.427 161.489 245.876 161.453C246.324 161.399 246.683 161.345 246.987 161.256C247.454 161.094 247.83 160.825 248.063 160.449C248.296 160.054 248.422 159.552 248.422 158.924V129.385C248.422 128.775 248.296 128.183 248.027 127.645C247.759 127.089 247.418 126.677 246.97 126.372C246.665 126.157 246.091 125.977 245.266 125.798C244.441 125.636 243.778 125.529 243.276 125.493V123.807L252.923 123.215L253.281 123.61V158.637C253.281 159.247 253.389 159.731 253.622 160.126C253.837 160.52 254.196 160.807 254.698 161.023C255.075 161.202 255.451 161.328 255.81 161.417C256.186 161.507 256.599 161.561 257.047 161.597V163.3L257.065 163.265ZM230.383 127.358C230.383 128.345 230.06 129.206 229.415 129.941C228.769 130.676 227.98 131.053 227.012 131.053C226.133 131.053 225.362 130.694 224.717 129.995C224.071 129.295 223.748 128.506 223.748 127.591C223.748 126.641 224.071 125.816 224.717 125.098C225.362 124.399 226.133 124.04 227.012 124.04C227.998 124.04 228.805 124.381 229.433 125.045C230.06 125.708 230.383 126.479 230.383 127.358ZM233.611 163.265H221.22V161.561C221.614 161.525 222.027 161.489 222.457 161.453C222.888 161.417 223.246 161.363 223.551 161.256C224.035 161.094 224.394 160.825 224.627 160.449C224.86 160.054 224.986 159.552 224.986 158.942V143.195C224.986 142.657 224.86 142.137 224.609 141.688C224.358 141.24 224.017 140.846 223.569 140.541C223.246 140.325 222.78 140.146 222.152 140.02C221.543 139.877 220.969 139.787 220.467 139.751V138.048L229.486 137.456L229.845 137.814V158.619C229.845 159.229 229.953 159.731 230.186 160.126C230.419 160.52 230.777 160.807 231.28 161.005C231.656 161.148 232.033 161.274 232.391 161.381C232.75 161.471 233.144 161.543 233.593 161.579V163.282L233.611 163.265ZM202.284 152.36C202.284 150.19 201.567 148.414 200.097 147.033C198.644 145.634 196.564 144.935 193.839 144.935C192.745 144.935 191.812 144.953 191.041 144.989C190.288 145.006 189.714 145.042 189.338 145.06V157.938C189.338 159.032 189.786 159.839 190.647 160.395C191.526 160.933 192.763 161.22 194.323 161.22C196.887 161.22 198.859 160.467 200.222 158.978C201.585 157.489 202.266 155.283 202.266 152.378L202.284 152.36ZM198.716 140.63C199.344 139.895 199.792 139.07 200.043 138.191C200.294 137.312 200.42 136.254 200.42 135.052C200.42 133.026 199.864 131.447 198.77 130.3C197.658 129.152 195.919 128.56 193.534 128.56C192.978 128.56 192.297 128.578 191.454 128.614C190.611 128.632 189.912 128.667 189.338 128.667V142.818H192.619C194.036 142.818 195.255 142.639 196.259 142.28C197.264 141.922 198.07 141.366 198.698 140.648L198.716 140.63ZM204.956 146.19C206.014 146.908 206.911 147.858 207.628 149.042C208.327 150.208 208.686 151.625 208.686 153.293C208.686 154.961 208.309 156.485 207.574 157.74C206.839 158.996 205.871 160.018 204.669 160.843C203.504 161.632 202.213 162.242 200.742 162.655C199.29 163.067 197.784 163.265 196.224 163.265H178.83V161.417C179.243 161.381 179.852 161.31 180.641 161.202C181.43 161.094 181.986 160.951 182.345 160.807C182.883 160.556 183.259 160.251 183.492 159.839C183.707 159.426 183.833 158.906 183.833 158.279V131.896C183.833 131.304 183.743 130.784 183.528 130.353C183.331 129.905 182.936 129.546 182.345 129.277C181.825 129.008 181.233 128.811 180.587 128.667C179.942 128.542 179.404 128.452 178.956 128.416V126.569H195.955C197.264 126.569 198.519 126.713 199.72 126.964C200.922 127.215 202.069 127.681 203.163 128.327C204.185 128.937 205.028 129.762 205.673 130.784C206.337 131.824 206.66 133.08 206.66 134.568C206.66 135.86 206.427 137.007 205.96 138.03C205.494 139.052 204.831 139.913 203.988 140.63C203.199 141.33 202.284 141.904 201.262 142.388C200.24 142.872 199.128 143.231 197.927 143.5V143.733C198.985 143.841 200.151 144.11 201.46 144.522C202.751 144.935 203.916 145.491 204.938 146.226L204.956 146.19Z" fill="#E8E2D8"/>
<path d="M569.844 39.9058C569.844 29.4855 576.838 21.863 587.13 21.863C597.961 21.863 603.986 29.2703 603.986 39.9058C603.986 50.5414 598.158 58.0742 587.13 58.0742C576.981 58.0742 569.844 49.9137 569.844 39.9058ZM555.661 8.71651H561.829V63.2933H569.844V50.5414C572.373 60.621 578.828 64.6744 587.596 64.6744C601.027 64.6744 612.001 53.6442 612.001 39.9238C612.001 26.2033 601.027 15.2987 587.596 15.2987C578.828 15.2987 572.373 19.3521 569.844 29.4317V8.64477C569.844 4.59141 566.904 1.65004 562.851 1.65004H555.661V8.71651ZM532.457 56.6394V15.2987H524.442V41.4841C524.442 49.6446 520.802 56.6394 509.218 56.6394C502.225 56.6394 498.19 52.1914 498.19 43.3315V15.2808H490.175V43.3315C490.175 55.4019 496.828 63.2754 509.308 63.2754C518.148 63.2754 522.613 59.4373 524.46 54.0208V56.2807C524.46 60.334 527.401 63.2754 531.453 63.2754H538.644V56.6214H532.475L532.457 56.6394ZM448.682 63.2933H469.249V56.6394H463.081V6.99473C463.081 2.95931 459.441 0 455.388 0H448.664V6.65396H454.832V56.6394H448.664V63.2933H448.682ZM381.869 39.2243C381.869 52.9447 392.09 63.9749 405.521 63.9749C420.332 63.9749 428.832 55.5453 429.029 44.7125L420.458 44.569C419.149 52.4605 415.867 56.3704 405.521 56.3704C395.999 56.3704 390.297 49.1066 390.297 39.2243C390.297 29.342 395.981 22.2217 405.521 22.2217C415.867 22.2217 419.167 25.5218 420.458 34.0231L429.029 33.8796C428.832 23.0467 420.314 14.6172 405.521 14.6172C392.09 14.6172 381.869 25.6653 381.869 39.2422V39.2243Z" fill="#E8E2D8"/>
<path fill-rule="evenodd" clip-rule="evenodd" d="M7.74638 28.463V8.64463H20.4239C30.089 8.64463 36.4008 9.39791 36.4008 18.4552C36.4008 27.5125 30.089 28.463 20.4239 28.463H7.74638ZM0 63.2932H7.74638V35.4578H20.4239C35.2353 35.4578 44.4162 31.0098 44.4162 18.4552C44.4162 5.90055 35.2353 1.6499 20.4239 1.6499H0V63.2932Z" fill="#E8E2D8"/>
<path fill-rule="evenodd" clip-rule="evenodd" d="M107.697 56.6397V15.2991H99.6814V41.5024C99.6814 49.6629 96.0413 56.6577 84.4576 56.6577C77.4643 56.6577 73.4118 52.2097 73.4118 43.3497V15.2991H65.3965V43.3497C65.3965 55.4201 72.049 63.3116 84.5293 63.3116C93.3695 63.3116 97.8344 59.4735 99.6814 54.057V56.3169C99.6814 60.3702 102.622 63.3116 106.675 63.3116H113.865V56.6577H107.697V56.6397Z" fill="#E8E2D8"/>
<path fill-rule="evenodd" clip-rule="evenodd" d="M147.542 39.9057C147.542 29.4853 154.535 21.8629 164.81 21.8629C175.64 21.8629 181.665 29.2701 181.665 39.9057C181.665 50.5413 175.837 58.0741 164.81 58.0741C154.66 58.0741 147.542 49.9135 147.542 39.9057ZM133.34 8.69844H139.508V63.2753H147.524V50.5233C150.052 60.6029 156.507 64.6563 165.276 64.6563C178.706 64.6563 189.68 53.6082 189.68 39.9057C189.68 26.2032 178.706 15.2807 165.276 15.2807C156.507 15.2807 150.052 19.334 147.524 29.4136V8.64463C147.524 4.59128 144.583 1.6499 140.53 1.6499H133.34V8.71637V8.69844Z" fill="#E8E2D8"/>
<path fill-rule="evenodd" clip-rule="evenodd" d="M208.273 63.2933H228.841V56.6394H222.672V6.99473C222.672 2.94137 219.032 0 214.998 0H208.273V6.65396H214.442V56.6394H208.273V63.2933Z" fill="#E8E2D8"/>
<path fill-rule="evenodd" clip-rule="evenodd" d="M271.142 56.6393V22.2934C271.142 18.2401 268.201 15.2987 264.148 15.2987H250.574V21.9526H263.323V56.6573H250.771V63.3112H283.676V56.6573H271.124L271.142 56.6393ZM272.863 3.83808L269.886 0.86084H261.817L258.805 3.83808L265.87 10.8328L272.863 3.83808Z" fill="#E8E2D8"/>
<path fill-rule="evenodd" clip-rule="evenodd" d="M299.938 39.225C299.938 52.9455 310.158 63.9756 323.589 63.9756C338.4 63.9756 346.9 55.5461 347.097 44.7132L338.526 44.5697C337.217 52.4612 333.936 56.3711 323.589 56.3711C314.067 56.3711 308.365 49.1073 308.365 39.225C308.365 29.3427 314.05 22.2224 323.589 22.2224C333.936 22.2224 337.235 25.5046 338.526 34.0238L347.097 33.8803C346.9 23.0475 338.4 14.6179 323.589 14.6179C310.158 14.6179 299.938 25.6481 299.938 39.243" fill="#E8E2D8"/>
</svg>
