<svg width="212" height="32" viewBox="0 0 212 32" fill="none" xmlns="http://www.w3.org/2000/svg">
<g clip-path="url(#clip0_1324_95)">
<mask id="mask0_1324_95" style="mask-type:luminance" maskUnits="userSpaceOnUse" x="0" y="0" width="212" height="32">
<path d="M212 0H0V32H212V0Z" fill="white"/>
</mask>
<g mask="url(#mask0_1324_95)">
<path d="M47.3623 4.36426C58.9287 4.36426 59.687 14.6652 59.687 14.6652H52.6451C52.6451 14.6652 52.393 9.64045 47.3623 9.64045C42.8855 9.64045 41.3289 13.4595 41.3289 18.1814C41.3289 22.9033 42.8855 26.7243 47.3623 26.7243C52.393 26.7243 52.6451 21.6995 52.6451 21.6995H59.687C59.687 21.6995 58.9325 32.0005 47.3623 32.0005C38.8097 32.0005 34.2852 25.8214 34.2852 18.1833C34.2852 10.5452 38.8116 4.36616 47.3623 4.36616V4.36426Z" fill="#E8E2D8"/>
<path d="M95.0075 31.24H87.9657V12.9029H87.7136L82.4307 31.24H75.8912L70.6084 12.9029H70.3563V31.24H63.3145V5.11621H73.8763L79.1591 23.2019L84.4419 5.11621H95.0037V31.24H95.0075Z" fill="#E8E2D8"/>
<path d="M98.8984 5.11621H105.94V14.661H108.958C116.25 14.661 120.274 17.9276 120.274 22.9524C120.274 27.9771 116.25 31.2438 108.958 31.2438H98.9003V5.11621H98.8984ZM105.94 19.6857V26.2171H107.951C111.723 26.2171 113.234 25.2114 113.234 22.9505C113.234 20.6895 111.723 19.6838 107.951 19.6838H105.94V19.6857ZM129.329 31.24H122.287V5.11621H129.329V31.24Z" fill="#E8E2D8"/>
<path d="M144.669 4.36426C156.235 4.36426 156.994 14.6652 156.994 14.6652H149.952C149.952 14.6652 149.7 9.64045 144.669 9.64045C140.192 9.64045 138.636 13.4595 138.636 18.1814C138.636 22.9033 140.192 26.7243 144.669 26.7243C149.7 26.7243 149.952 21.6995 149.952 21.6995H156.994C156.994 21.6995 156.239 32.0005 144.669 32.0005C136.116 32.0005 131.594 25.8214 131.594 18.1833C131.594 10.5452 136.12 4.36616 144.669 4.36616V4.36426Z" fill="#E8E2D8"/>
<path d="M199.423 4.36426C208.021 4.36426 211.996 10.5433 211.996 18.1814C211.996 18.7852 211.946 19.69 211.946 19.69H193.437C193.739 23.7071 195.45 26.7224 199.675 26.7224C203.9 26.7224 204.706 22.7052 204.706 22.7052H211.748C211.748 22.7052 210.237 31.9986 199.423 31.9986C190.62 31.9986 186.346 25.8195 186.346 18.1814C186.346 10.5433 190.823 4.36426 199.423 4.36426ZM193.638 15.1662H204.755C204.303 11.9528 202.895 9.64045 199.423 9.64045C195.951 9.64045 194.239 11.9509 193.638 15.1662Z" fill="#E8E2D8"/>
<path d="M158.156 31.3903V25.8932C159.115 26.0741 159.852 26.0608 160.374 25.857C160.891 25.6532 161.287 25.2494 161.554 24.6399C161.821 24.0322 162.054 23.198 162.247 22.1446C162.509 20.7503 162.74 19.1199 162.944 17.2551C163.147 15.3904 163.321 13.417 163.468 11.3294C163.611 9.24559 163.745 7.17321 163.857 5.11035H183.734V31.238H176.692V12.1408H169.656C169.593 12.9846 169.505 13.1465 169.402 14.3123C169.297 15.4799 169.184 16.6913 169.062 17.9484C168.94 19.2037 168.806 20.4056 168.659 21.5484C168.512 22.6913 168.357 23.6703 168.195 24.4799C167.805 26.5389 167.228 28.1599 166.466 29.3465C165.702 30.5294 164.656 31.2894 163.324 31.6227C161.991 31.9541 160.27 31.876 158.16 31.3903H158.154H158.156Z" fill="#E8E2D8"/>
<path d="M26.4217 15.2814H22.6611V11.5119H18.8871V5.38809C17.2713 4.72714 15.4168 4.36523 13.3293 4.36523C4.73085 4.36333 0 10.5405 0 18.1824C0 25.8243 4.73085 31.9976 13.3312 31.9976C21.9315 31.9976 26.6623 25.8186 26.6623 18.1824C26.6623 17.19 26.5821 16.2186 26.4217 15.2814ZM13.3274 26.7176C8.84861 26.7176 7.03993 22.8986 7.03993 18.1767C7.03993 13.4548 8.84861 9.6319 13.3274 9.6319C17.8061 9.6319 19.6129 13.4509 19.6129 18.1767C19.6129 22.9024 17.8061 26.7176 13.3274 26.7176Z" fill="#E8E2D8"/>
<path d="M32.0831 0V11.301H28.3072V7.53143H24.5332V0H32.0831Z" fill="#E8E2D8"/>
</g>
</g>
<defs>
<clipPath id="clip0_1324_95">
<rect width="212" height="32" fill="white"/>
</clipPath>
</defs>
</svg>
