<svg width="280" height="280" viewBox="0 0 280 280" fill="none" xmlns="http://www.w3.org/2000/svg">
<g clip-path="url(#clip0_3102_91)">
<path d="M280 0H0V280H280V0Z" fill="white"/>
<path d="M18.9237 9.95508H9.95508V18.9237H18.9237V9.95508Z" fill="black"/>
<path d="M27.8922 9.95508H18.9237V18.9237H27.8922V9.95508Z" fill="black"/>
<path d="M36.8608 9.95508H27.8922V18.9237H36.8608V9.95508Z" fill="black"/>
<path d="M45.8294 9.95508H36.8608V18.9237H45.8294V9.95508Z" fill="black"/>
<path d="M54.798 9.95508H45.8294V18.9237H54.798V9.95508Z" fill="black"/>
<path d="M63.7666 9.95508H54.798V18.9237H63.7666V9.95508Z" fill="black"/>
<path d="M72.7352 9.95508H63.7666V18.9237H72.7352V9.95508Z" fill="black"/>
<path d="M90.6723 9.95508H81.7037V18.9237H90.6723V9.95508Z" fill="black"/>
<path d="M117.578 9.95508H108.609V18.9237H117.578V9.95508Z" fill="black"/>
<path d="M135.515 9.95508H126.547V18.9237H135.515V9.95508Z" fill="black"/>
<path d="M153.452 9.95508H144.484V18.9237H153.452V9.95508Z" fill="black"/>
<path d="M162.421 9.95508H153.452V18.9237H162.421V9.95508Z" fill="black"/>
<path d="M171.39 9.95508H162.421V18.9237H171.39V9.95508Z" fill="black"/>
<path d="M180.358 9.95508H171.39V18.9237H180.358V9.95508Z" fill="black"/>
<path d="M189.327 9.95508H180.358V18.9237H189.327V9.95508Z" fill="black"/>
<path d="M198.295 9.95508H189.327V18.9237H198.295V9.95508Z" fill="black"/>
<path d="M216.232 9.95508H207.264V18.9237H216.232V9.95508Z" fill="black"/>
<path d="M225.201 9.95508H216.232V18.9237H225.201V9.95508Z" fill="black"/>
<path d="M234.17 9.95508H225.201V18.9237H234.17V9.95508Z" fill="black"/>
<path d="M243.138 9.95508H234.17V18.9237H243.138V9.95508Z" fill="black"/>
<path d="M252.107 9.95508H243.138V18.9237H252.107V9.95508Z" fill="black"/>
<path d="M261.075 9.95508H252.107V18.9237H261.075V9.95508Z" fill="black"/>
<path d="M270.044 9.95508H261.075V18.9237H270.044V9.95508Z" fill="black"/>
<path d="M18.9237 18.9237H9.95508V27.8922H18.9237V18.9237Z" fill="black"/>
<path d="M72.7352 18.9237H63.7666V27.8922H72.7352V18.9237Z" fill="black"/>
<path d="M99.6409 18.9237H90.6723V27.8922H99.6409V18.9237Z" fill="black"/>
<path d="M117.578 18.9237H108.609V27.8922H117.578V18.9237Z" fill="black"/>
<path d="M153.452 18.9237H144.484V27.8922H153.452V18.9237Z" fill="black"/>
<path d="M216.232 18.9237H207.264V27.8922H216.232V18.9237Z" fill="black"/>
<path d="M270.044 18.9237H261.075V27.8922H270.044V18.9237Z" fill="black"/>
<path d="M18.9237 27.8922H9.95508V36.8608H18.9237V27.8922Z" fill="black"/>
<path d="M36.8608 27.8922H27.8922V36.8608H36.8608V27.8922Z" fill="black"/>
<path d="M45.8294 27.8922H36.8608V36.8608H45.8294V27.8922Z" fill="black"/>
<path d="M54.798 27.8922H45.8294V36.8608H54.798V27.8922Z" fill="black"/>
<path d="M72.7352 27.8922H63.7666V36.8608H72.7352V27.8922Z" fill="black"/>
<path d="M90.6723 27.8922H81.7037V36.8608H90.6723V27.8922Z" fill="black"/>
<path d="M99.6409 27.8922H90.6723V36.8608H99.6409V27.8922Z" fill="black"/>
<path d="M126.547 27.8922H117.578V36.8608H126.547V27.8922Z" fill="black"/>
<path d="M135.515 27.8922H126.547V36.8608H135.515V27.8922Z" fill="black"/>
<path d="M144.484 27.8922H135.515V36.8608H144.484V27.8922Z" fill="black"/>
<path d="M153.452 27.8922H144.484V36.8608H153.452V27.8922Z" fill="black"/>
<path d="M162.421 27.8922H153.452V36.8608H162.421V27.8922Z" fill="black"/>
<path d="M180.358 27.8922H171.39V36.8608H180.358V27.8922Z" fill="black"/>
<path d="M189.327 27.8922H180.358V36.8608H189.327V27.8922Z" fill="black"/>
<path d="M198.295 27.8922H189.327V36.8608H198.295V27.8922Z" fill="black"/>
<path d="M216.232 27.8922H207.264V36.8608H216.232V27.8922Z" fill="black"/>
<path d="M234.17 27.8922H225.201V36.8608H234.17V27.8922Z" fill="black"/>
<path d="M243.138 27.8922H234.17V36.8608H243.138V27.8922Z" fill="black"/>
<path d="M252.107 27.8922H243.138V36.8608H252.107V27.8922Z" fill="black"/>
<path d="M270.044 27.8922H261.075V36.8608H270.044V27.8922Z" fill="black"/>
<path d="M18.9237 36.8608H9.95508V45.8294H18.9237V36.8608Z" fill="black"/>
<path d="M36.8608 36.8608H27.8922V45.8294H36.8608V36.8608Z" fill="black"/>
<path d="M45.8294 36.8608H36.8608V45.8294H45.8294V36.8608Z" fill="black"/>
<path d="M54.798 36.8608H45.8294V45.8294H54.798V36.8608Z" fill="black"/>
<path d="M72.7352 36.8608H63.7666V45.8294H72.7352V36.8608Z" fill="black"/>
<path d="M90.6723 36.8608H81.7037V45.8294H90.6723V36.8608Z" fill="black"/>
<path d="M99.6409 36.8608H90.6723V45.8294H99.6409V36.8608Z" fill="black"/>
<path d="M126.547 36.8608H117.578V45.8294H126.547V36.8608Z" fill="black"/>
<path d="M135.515 36.8608H126.547V45.8294H135.515V36.8608Z" fill="black"/>
<path d="M153.452 36.8608H144.484V45.8294H153.452V36.8608Z" fill="black"/>
<path d="M162.421 36.8608H153.452V45.8294H162.421V36.8608Z" fill="black"/>
<path d="M171.39 36.8608H162.421V45.8294H171.39V36.8608Z" fill="black"/>
<path d="M198.295 36.8608H189.327V45.8294H198.295V36.8608Z" fill="black"/>
<path d="M216.232 36.8608H207.264V45.8294H216.232V36.8608Z" fill="black"/>
<path d="M234.17 36.8608H225.201V45.8294H234.17V36.8608Z" fill="black"/>
<path d="M243.138 36.8608H234.17V45.8294H243.138V36.8608Z" fill="black"/>
<path d="M252.107 36.8608H243.138V45.8294H252.107V36.8608Z" fill="black"/>
<path d="M270.044 36.8608H261.075V45.8294H270.044V36.8608Z" fill="black"/>
<path d="M18.9237 45.8294H9.95508V54.798H18.9237V45.8294Z" fill="black"/>
<path d="M36.8608 45.8294H27.8922V54.798H36.8608V45.8294Z" fill="black"/>
<path d="M45.8294 45.8294H36.8608V54.798H45.8294V45.8294Z" fill="black"/>
<path d="M54.798 45.8294H45.8294V54.798H54.798V45.8294Z" fill="black"/>
<path d="M72.7352 45.8294H63.7666V54.798H72.7352V45.8294Z" fill="black"/>
<path d="M90.6723 45.8294H81.7037V54.798H90.6723V45.8294Z" fill="black"/>
<path d="M117.578 45.8294H108.609V54.798H117.578V45.8294Z" fill="black"/>
<path d="M135.515 45.8294H126.547V54.798H135.515V45.8294Z" fill="black"/>
<path d="M153.452 45.8294H144.484V54.798H153.452V45.8294Z" fill="black"/>
<path d="M180.358 45.8294H171.39V54.798H180.358V45.8294Z" fill="black"/>
<path d="M198.295 45.8294H189.327V54.798H198.295V45.8294Z" fill="black"/>
<path d="M216.232 45.8294H207.264V54.798H216.232V45.8294Z" fill="black"/>
<path d="M234.17 45.8294H225.201V54.798H234.17V45.8294Z" fill="black"/>
<path d="M243.138 45.8294H234.17V54.798H243.138V45.8294Z" fill="black"/>
<path d="M252.107 45.8294H243.138V54.798H252.107V45.8294Z" fill="black"/>
<path d="M270.044 45.8294H261.075V54.798H270.044V45.8294Z" fill="black"/>
<path d="M18.9237 54.798H9.95508V63.7666H18.9237V54.798Z" fill="black"/>
<path d="M72.7352 54.798H63.7666V63.7666H72.7352V54.798Z" fill="black"/>
<path d="M90.6723 54.798H81.7037V63.7666H90.6723V54.798Z" fill="black"/>
<path d="M99.6409 54.798H90.6723V63.7666H99.6409V54.798Z" fill="black"/>
<path d="M108.609 54.798H99.6409V63.7666H108.609V54.798Z" fill="black"/>
<path d="M135.515 54.798H126.547V63.7666H135.515V54.798Z" fill="black"/>
<path d="M144.484 54.798H135.515V63.7666H144.484V54.798Z" fill="black"/>
<path d="M216.232 54.798H207.264V63.7666H216.232V54.798Z" fill="black"/>
<path d="M270.044 54.798H261.075V63.7666H270.044V54.798Z" fill="black"/>
<path d="M18.9237 63.7666H9.95508V72.7352H18.9237V63.7666Z" fill="black"/>
<path d="M27.8922 63.7666H18.9237V72.7352H27.8922V63.7666Z" fill="black"/>
<path d="M36.8608 63.7666H27.8922V72.7352H36.8608V63.7666Z" fill="black"/>
<path d="M45.8294 63.7666H36.8608V72.7352H45.8294V63.7666Z" fill="black"/>
<path d="M54.798 63.7666H45.8294V72.7352H54.798V63.7666Z" fill="black"/>
<path d="M63.7666 63.7666H54.798V72.7352H63.7666V63.7666Z" fill="black"/>
<path d="M72.7352 63.7666H63.7666V72.7352H72.7352V63.7666Z" fill="black"/>
<path d="M90.6723 63.7666H81.7037V72.7352H90.6723V63.7666Z" fill="black"/>
<path d="M108.609 63.7666H99.6409V72.7352H108.609V63.7666Z" fill="black"/>
<path d="M126.547 63.7666H117.578V72.7352H126.547V63.7666Z" fill="black"/>
<path d="M144.484 63.7666H135.515V72.7352H144.484V63.7666Z" fill="black"/>
<path d="M162.421 63.7666H153.452V72.7352H162.421V63.7666Z" fill="black"/>
<path d="M180.358 63.7666H171.39V72.7352H180.358V63.7666Z" fill="black"/>
<path d="M198.295 63.7666H189.327V72.7352H198.295V63.7666Z" fill="black"/>
<path d="M216.232 63.7666H207.264V72.7352H216.232V63.7666Z" fill="black"/>
<path d="M225.201 63.7666H216.232V72.7352H225.201V63.7666Z" fill="black"/>
<path d="M234.17 63.7666H225.201V72.7352H234.17V63.7666Z" fill="black"/>
<path d="M243.138 63.7666H234.17V72.7352H243.138V63.7666Z" fill="black"/>
<path d="M252.107 63.7666H243.138V72.7352H252.107V63.7666Z" fill="black"/>
<path d="M261.075 63.7666H252.107V72.7352H261.075V63.7666Z" fill="black"/>
<path d="M270.044 63.7666H261.075V72.7352H270.044V63.7666Z" fill="black"/>
<path d="M117.578 72.7352H108.609V81.7037H117.578V72.7352Z" fill="black"/>
<path d="M126.547 72.7352H117.578V81.7037H126.547V72.7352Z" fill="black"/>
<path d="M171.39 72.7352H162.421V81.7037H171.39V72.7352Z" fill="black"/>
<path d="M36.8608 81.7037H27.8922V90.6723H36.8608V81.7037Z" fill="black"/>
<path d="M45.8294 81.7037H36.8608V90.6723H45.8294V81.7037Z" fill="black"/>
<path d="M54.798 81.7037H45.8294V90.6723H54.798V81.7037Z" fill="black"/>
<path d="M63.7666 81.7037H54.798V90.6723H63.7666V81.7037Z" fill="black"/>
<path d="M72.7352 81.7037H63.7666V90.6723H72.7352V81.7037Z" fill="black"/>
<path d="M81.7037 81.7037H72.7352V90.6723H81.7037V81.7037Z" fill="black"/>
<path d="M108.609 81.7037H99.6409V90.6723H108.609V81.7037Z" fill="black"/>
<path d="M126.547 81.7037H117.578V90.6723H126.547V81.7037Z" fill="black"/>
<path d="M135.515 81.7037H126.547V90.6723H135.515V81.7037Z" fill="black"/>
<path d="M144.484 81.7037H135.515V90.6723H144.484V81.7037Z" fill="black"/>
<path d="M153.452 81.7037H144.484V90.6723H153.452V81.7037Z" fill="black"/>
<path d="M162.421 81.7037H153.452V90.6723H162.421V81.7037Z" fill="black"/>
<path d="M189.327 81.7037H180.358V90.6723H189.327V81.7037Z" fill="black"/>
<path d="M207.264 81.7037H198.295V90.6723H207.264V81.7037Z" fill="black"/>
<path d="M225.201 81.7037H216.232V90.6723H225.201V81.7037Z" fill="black"/>
<path d="M234.17 81.7037H225.201V90.6723H234.17V81.7037Z" fill="black"/>
<path d="M243.138 81.7037H234.17V90.6723H243.138V81.7037Z" fill="black"/>
<path d="M252.107 81.7037H243.138V90.6723H252.107V81.7037Z" fill="black"/>
<path d="M270.044 81.7037H261.075V90.6723H270.044V81.7037Z" fill="black"/>
<path d="M27.8922 90.6723H18.9237V99.6409H27.8922V90.6723Z" fill="black"/>
<path d="M54.798 90.6723H45.8294V99.6409H54.798V90.6723Z" fill="black"/>
<path d="M63.7666 90.6723H54.798V99.6409H63.7666V90.6723Z" fill="black"/>
<path d="M81.7037 90.6723H72.7352V99.6409H81.7037V90.6723Z" fill="black"/>
<path d="M126.547 90.6723H117.578V99.6409H126.547V90.6723Z" fill="black"/>
<path d="M135.515 90.6723H126.547V99.6409H135.515V90.6723Z" fill="black"/>
<path d="M144.484 90.6723H135.515V99.6409H144.484V90.6723Z" fill="black"/>
<path d="M153.452 90.6723H144.484V99.6409H153.452V90.6723Z" fill="black"/>
<path d="M162.421 90.6723H153.452V99.6409H162.421V90.6723Z" fill="black"/>
<path d="M180.358 90.6723H171.39V99.6409H180.358V90.6723Z" fill="black"/>
<path d="M198.295 90.6723H189.327V99.6409H198.295V90.6723Z" fill="black"/>
<path d="M207.264 90.6723H198.295V99.6409H207.264V90.6723Z" fill="black"/>
<path d="M225.201 90.6723H216.232V99.6409H225.201V90.6723Z" fill="black"/>
<path d="M252.107 90.6723H243.138V99.6409H252.107V90.6723Z" fill="black"/>
<path d="M261.075 90.6723H252.107V99.6409H261.075V90.6723Z" fill="black"/>
<path d="M270.044 90.6723H261.075V99.6409H270.044V90.6723Z" fill="black"/>
<path d="M36.8608 99.6409H27.8922V108.609H36.8608V99.6409Z" fill="black"/>
<path d="M45.8294 99.6409H36.8608V108.609H45.8294V99.6409Z" fill="black"/>
<path d="M54.798 99.6409H45.8294V108.609H54.798V99.6409Z" fill="black"/>
<path d="M63.7666 99.6409H54.798V108.609H63.7666V99.6409Z" fill="black"/>
<path d="M72.7352 99.6409H63.7666V108.609H72.7352V99.6409Z" fill="black"/>
<path d="M90.6723 99.6409H81.7037V108.609H90.6723V99.6409Z" fill="black"/>
<path d="M108.609 99.6409H99.6409V108.609H108.609V99.6409Z" fill="black"/>
<path d="M126.547 99.6409H117.578V108.609H126.547V99.6409Z" fill="black"/>
<path d="M144.484 99.6409H135.515V108.609H144.484V99.6409Z" fill="black"/>
<path d="M180.358 99.6409H171.39V108.609H180.358V99.6409Z" fill="black"/>
<path d="M198.295 99.6409H189.327V108.609H198.295V99.6409Z" fill="black"/>
<path d="M207.264 99.6409H198.295V108.609H207.264V99.6409Z" fill="black"/>
<path d="M216.232 99.6409H207.264V108.609H216.232V99.6409Z" fill="black"/>
<path d="M225.201 99.6409H216.232V108.609H225.201V99.6409Z" fill="black"/>
<path d="M243.138 99.6409H234.17V108.609H243.138V99.6409Z" fill="black"/>
<path d="M261.075 99.6409H252.107V108.609H261.075V99.6409Z" fill="black"/>
<path d="M270.044 99.6409H261.075V108.609H270.044V99.6409Z" fill="black"/>
<path d="M36.8608 108.609H27.8922V117.578H36.8608V108.609Z" fill="black"/>
<path d="M90.6723 108.609H81.7037V117.578H90.6723V108.609Z" fill="black"/>
<path d="M108.609 108.609H99.6409V117.578H108.609V108.609Z" fill="black"/>
<path d="M117.578 108.609H108.609V117.578H117.578V108.609Z" fill="black"/>
<path d="M126.547 108.609H117.578V117.578H126.547V108.609Z" fill="black"/>
<path d="M144.484 108.609H135.515V117.578H144.484V108.609Z" fill="black"/>
<path d="M153.452 108.609H144.484V117.578H153.452V108.609Z" fill="black"/>
<path d="M162.421 108.609H153.452V117.578H162.421V108.609Z" fill="black"/>
<path d="M171.39 108.609H162.421V117.578H171.39V108.609Z" fill="black"/>
<path d="M180.358 108.609H171.39V117.578H180.358V108.609Z" fill="black"/>
<path d="M189.327 108.609H180.358V117.578H189.327V108.609Z" fill="black"/>
<path d="M234.17 108.609H225.201V117.578H234.17V108.609Z" fill="black"/>
<path d="M252.107 108.609H243.138V117.578H252.107V108.609Z" fill="black"/>
<path d="M270.044 108.609H261.075V117.578H270.044V108.609Z" fill="black"/>
<path d="M27.8922 117.578H18.9237V126.547H27.8922V117.578Z" fill="black"/>
<path d="M54.798 117.578H45.8294V126.547H54.798V117.578Z" fill="black"/>
<path d="M72.7352 117.578H63.7666V126.547H72.7352V117.578Z" fill="black"/>
<path d="M90.6723 117.578H81.7037V126.547H90.6723V117.578Z" fill="black"/>
<path d="M108.609 117.578H99.6409V126.547H108.609V117.578Z" fill="black"/>
<path d="M126.547 117.578H117.578V126.547H126.547V117.578Z" fill="black"/>
<path d="M153.452 117.578H144.484V126.547H153.452V117.578Z" fill="black"/>
<path d="M162.421 117.578H153.452V126.547H162.421V117.578Z" fill="black"/>
<path d="M180.358 117.578H171.39V126.547H180.358V117.578Z" fill="black"/>
<path d="M189.327 117.578H180.358V126.547H189.327V117.578Z" fill="black"/>
<path d="M207.264 117.578H198.295V126.547H207.264V117.578Z" fill="black"/>
<path d="M261.075 117.578H252.107V126.547H261.075V117.578Z" fill="black"/>
<path d="M270.044 117.578H261.075V126.547H270.044V117.578Z" fill="black"/>
<path d="M18.9237 126.547H9.95508V135.515H18.9237V126.547Z" fill="black"/>
<path d="M27.8922 126.547H18.9237V135.515H27.8922V126.547Z" fill="black"/>
<path d="M36.8608 126.547H27.8922V135.515H36.8608V126.547Z" fill="black"/>
<path d="M99.6409 126.547H90.6723V135.515H99.6409V126.547Z" fill="black"/>
<path d="M108.609 126.547H99.6409V135.515H108.609V126.547Z" fill="black"/>
<path d="M117.578 126.547H108.609V135.515H117.578V126.547Z" fill="black"/>
<path d="M171.39 126.547H162.421V135.515H171.39V126.547Z" fill="black"/>
<path d="M180.358 126.547H171.39V135.515H180.358V126.547Z" fill="black"/>
<path d="M189.327 126.547H180.358V135.515H189.327V126.547Z" fill="black"/>
<path d="M243.138 126.547H234.17V135.515H243.138V126.547Z" fill="black"/>
<path d="M252.107 126.547H243.138V135.515H252.107V126.547Z" fill="black"/>
<path d="M261.075 126.547H252.107V135.515H261.075V126.547Z" fill="black"/>
<path d="M18.9237 135.515H9.95508V144.484H18.9237V135.515Z" fill="black"/>
<path d="M27.8922 135.515H18.9237V144.484H27.8922V135.515Z" fill="black"/>
<path d="M45.8294 135.515H36.8608V144.484H45.8294V135.515Z" fill="black"/>
<path d="M72.7352 135.515H63.7666V144.484H72.7352V135.515Z" fill="black"/>
<path d="M81.7037 135.515H72.7352V144.484H81.7037V135.515Z" fill="black"/>
<path d="M99.6409 135.515H90.6723V144.484H99.6409V135.515Z" fill="black"/>
<path d="M108.609 135.515H99.6409V144.484H108.609V135.515Z" fill="black"/>
<path d="M126.547 135.515H117.578V144.484H126.547V135.515Z" fill="black"/>
<path d="M153.452 135.515H144.484V144.484H153.452V135.515Z" fill="black"/>
<path d="M171.39 135.515H162.421V144.484H171.39V135.515Z" fill="black"/>
<path d="M180.358 135.515H171.39V144.484H180.358V135.515Z" fill="black"/>
<path d="M198.295 135.515H189.327V144.484H198.295V135.515Z" fill="black"/>
<path d="M225.201 135.515H216.232V144.484H225.201V135.515Z" fill="black"/>
<path d="M243.138 135.515H234.17V144.484H243.138V135.515Z" fill="black"/>
<path d="M252.107 135.515H243.138V144.484H252.107V135.515Z" fill="black"/>
<path d="M270.044 135.515H261.075V144.484H270.044V135.515Z" fill="black"/>
<path d="M18.9237 144.484H9.95508V153.452H18.9237V144.484Z" fill="black"/>
<path d="M27.8922 144.484H18.9237V153.452H27.8922V144.484Z" fill="black"/>
<path d="M36.8608 144.484H27.8922V153.452H36.8608V144.484Z" fill="black"/>
<path d="M45.8294 144.484H36.8608V153.452H45.8294V144.484Z" fill="black"/>
<path d="M54.798 144.484H45.8294V153.452H54.798V144.484Z" fill="black"/>
<path d="M99.6409 144.484H90.6723V153.452H99.6409V144.484Z" fill="black"/>
<path d="M108.609 144.484H99.6409V153.452H108.609V144.484Z" fill="black"/>
<path d="M117.578 144.484H108.609V153.452H117.578V144.484Z" fill="black"/>
<path d="M126.547 144.484H117.578V153.452H126.547V144.484Z" fill="black"/>
<path d="M135.515 144.484H126.547V153.452H135.515V144.484Z" fill="black"/>
<path d="M171.39 144.484H162.421V153.452H171.39V144.484Z" fill="black"/>
<path d="M180.358 144.484H171.39V153.452H180.358V144.484Z" fill="black"/>
<path d="M189.327 144.484H180.358V153.452H189.327V144.484Z" fill="black"/>
<path d="M198.295 144.484H189.327V153.452H198.295V144.484Z" fill="black"/>
<path d="M207.264 144.484H198.295V153.452H207.264V144.484Z" fill="black"/>
<path d="M243.138 144.484H234.17V153.452H243.138V144.484Z" fill="black"/>
<path d="M252.107 144.484H243.138V153.452H252.107V144.484Z" fill="black"/>
<path d="M261.075 144.484H252.107V153.452H261.075V144.484Z" fill="black"/>
<path d="M27.8922 153.452H18.9237V162.421H27.8922V153.452Z" fill="black"/>
<path d="M54.798 153.452H45.8294V162.421H54.798V153.452Z" fill="black"/>
<path d="M72.7352 153.452H63.7666V162.421H72.7352V153.452Z" fill="black"/>
<path d="M81.7037 153.452H72.7352V162.421H81.7037V153.452Z" fill="black"/>
<path d="M90.6723 153.452H81.7037V162.421H90.6723V153.452Z" fill="black"/>
<path d="M108.609 153.452H99.6409V162.421H108.609V153.452Z" fill="black"/>
<path d="M135.515 153.452H126.547V162.421H135.515V153.452Z" fill="black"/>
<path d="M153.452 153.452H144.484V162.421H153.452V153.452Z" fill="black"/>
<path d="M162.421 153.452H153.452V162.421H162.421V153.452Z" fill="black"/>
<path d="M180.358 153.452H171.39V162.421H180.358V153.452Z" fill="black"/>
<path d="M207.264 153.452H198.295V162.421H207.264V153.452Z" fill="black"/>
<path d="M225.201 153.452H216.232V162.421H225.201V153.452Z" fill="black"/>
<path d="M252.107 153.452H243.138V162.421H252.107V153.452Z" fill="black"/>
<path d="M261.075 153.452H252.107V162.421H261.075V153.452Z" fill="black"/>
<path d="M18.9237 162.421H9.95508V171.39H18.9237V162.421Z" fill="black"/>
<path d="M45.8294 162.421H36.8608V171.39H45.8294V162.421Z" fill="black"/>
<path d="M90.6723 162.421H81.7037V171.39H90.6723V162.421Z" fill="black"/>
<path d="M108.609 162.421H99.6409V171.39H108.609V162.421Z" fill="black"/>
<path d="M126.547 162.421H117.578V171.39H126.547V162.421Z" fill="black"/>
<path d="M135.515 162.421H126.547V171.39H135.515V162.421Z" fill="black"/>
<path d="M162.421 162.421H153.452V171.39H162.421V162.421Z" fill="black"/>
<path d="M180.358 162.421H171.39V171.39H180.358V162.421Z" fill="black"/>
<path d="M198.295 162.421H189.327V171.39H198.295V162.421Z" fill="black"/>
<path d="M234.17 162.421H225.201V171.39H234.17V162.421Z" fill="black"/>
<path d="M270.044 162.421H261.075V171.39H270.044V162.421Z" fill="black"/>
<path d="M27.8922 171.39H18.9237V180.358H27.8922V171.39Z" fill="black"/>
<path d="M45.8294 171.39H36.8608V180.358H45.8294V171.39Z" fill="black"/>
<path d="M54.798 171.39H45.8294V180.358H54.798V171.39Z" fill="black"/>
<path d="M63.7666 171.39H54.798V180.358H63.7666V171.39Z" fill="black"/>
<path d="M72.7352 171.39H63.7666V180.358H72.7352V171.39Z" fill="black"/>
<path d="M81.7037 171.39H72.7352V180.358H81.7037V171.39Z" fill="black"/>
<path d="M108.609 171.39H99.6409V180.358H108.609V171.39Z" fill="black"/>
<path d="M144.484 171.39H135.515V180.358H144.484V171.39Z" fill="black"/>
<path d="M180.358 171.39H171.39V180.358H180.358V171.39Z" fill="black"/>
<path d="M225.201 171.39H216.232V180.358H225.201V171.39Z" fill="black"/>
<path d="M243.138 171.39H234.17V180.358H243.138V171.39Z" fill="black"/>
<path d="M18.9237 180.358H9.95508V189.327H18.9237V180.358Z" fill="black"/>
<path d="M54.798 180.358H45.8294V189.327H54.798V180.358Z" fill="black"/>
<path d="M90.6723 180.358H81.7037V189.327H90.6723V180.358Z" fill="black"/>
<path d="M99.6409 180.358H90.6723V189.327H99.6409V180.358Z" fill="black"/>
<path d="M135.515 180.358H126.547V189.327H135.515V180.358Z" fill="black"/>
<path d="M162.421 180.358H153.452V189.327H162.421V180.358Z" fill="black"/>
<path d="M171.39 180.358H162.421V189.327H171.39V180.358Z" fill="black"/>
<path d="M189.327 180.358H180.358V189.327H189.327V180.358Z" fill="black"/>
<path d="M198.295 180.358H189.327V189.327H198.295V180.358Z" fill="black"/>
<path d="M216.232 180.358H207.264V189.327H216.232V180.358Z" fill="black"/>
<path d="M225.201 180.358H216.232V189.327H225.201V180.358Z" fill="black"/>
<path d="M252.107 180.358H243.138V189.327H252.107V180.358Z" fill="black"/>
<path d="M270.044 180.358H261.075V189.327H270.044V180.358Z" fill="black"/>
<path d="M18.9237 189.327H9.95508V198.295H18.9237V189.327Z" fill="black"/>
<path d="M36.8608 189.327H27.8922V198.295H36.8608V189.327Z" fill="black"/>
<path d="M45.8294 189.327H36.8608V198.295H45.8294V189.327Z" fill="black"/>
<path d="M54.798 189.327H45.8294V198.295H54.798V189.327Z" fill="black"/>
<path d="M72.7352 189.327H63.7666V198.295H72.7352V189.327Z" fill="black"/>
<path d="M81.7037 189.327H72.7352V198.295H81.7037V189.327Z" fill="black"/>
<path d="M99.6409 189.327H90.6723V198.295H99.6409V189.327Z" fill="black"/>
<path d="M108.609 189.327H99.6409V198.295H108.609V189.327Z" fill="black"/>
<path d="M135.515 189.327H126.547V198.295H135.515V189.327Z" fill="black"/>
<path d="M144.484 189.327H135.515V198.295H144.484V189.327Z" fill="black"/>
<path d="M162.421 189.327H153.452V198.295H162.421V189.327Z" fill="black"/>
<path d="M171.39 189.327H162.421V198.295H171.39V189.327Z" fill="black"/>
<path d="M180.358 189.327H171.39V198.295H180.358V189.327Z" fill="black"/>
<path d="M189.327 189.327H180.358V198.295H189.327V189.327Z" fill="black"/>
<path d="M198.295 189.327H189.327V198.295H198.295V189.327Z" fill="black"/>
<path d="M207.264 189.327H198.295V198.295H207.264V189.327Z" fill="black"/>
<path d="M216.232 189.327H207.264V198.295H216.232V189.327Z" fill="black"/>
<path d="M225.201 189.327H216.232V198.295H225.201V189.327Z" fill="black"/>
<path d="M234.17 189.327H225.201V198.295H234.17V189.327Z" fill="black"/>
<path d="M252.107 189.327H243.138V198.295H252.107V189.327Z" fill="black"/>
<path d="M261.075 189.327H252.107V198.295H261.075V189.327Z" fill="black"/>
<path d="M117.578 198.295H108.609V207.264H117.578V198.295Z" fill="black"/>
<path d="M135.515 198.295H126.547V207.264H135.515V198.295Z" fill="black"/>
<path d="M144.484 198.295H135.515V207.264H144.484V198.295Z" fill="black"/>
<path d="M153.452 198.295H144.484V207.264H153.452V198.295Z" fill="black"/>
<path d="M171.39 198.295H162.421V207.264H171.39V198.295Z" fill="black"/>
<path d="M198.295 198.295H189.327V207.264H198.295V198.295Z" fill="black"/>
<path d="M234.17 198.295H225.201V207.264H234.17V198.295Z" fill="black"/>
<path d="M243.138 198.295H234.17V207.264H243.138V198.295Z" fill="black"/>
<path d="M252.107 198.295H243.138V207.264H252.107V198.295Z" fill="black"/>
<path d="M261.075 198.295H252.107V207.264H261.075V198.295Z" fill="black"/>
<path d="M270.044 198.295H261.075V207.264H270.044V198.295Z" fill="black"/>
<path d="M18.9237 207.264H9.95508V216.232H18.9237V207.264Z" fill="black"/>
<path d="M27.8922 207.264H18.9237V216.232H27.8922V207.264Z" fill="black"/>
<path d="M36.8608 207.264H27.8922V216.232H36.8608V207.264Z" fill="black"/>
<path d="M45.8294 207.264H36.8608V216.232H45.8294V207.264Z" fill="black"/>
<path d="M54.798 207.264H45.8294V216.232H54.798V207.264Z" fill="black"/>
<path d="M63.7666 207.264H54.798V216.232H63.7666V207.264Z" fill="black"/>
<path d="M72.7352 207.264H63.7666V216.232H72.7352V207.264Z" fill="black"/>
<path d="M90.6723 207.264H81.7037V216.232H90.6723V207.264Z" fill="black"/>
<path d="M99.6409 207.264H90.6723V216.232H99.6409V207.264Z" fill="black"/>
<path d="M135.515 207.264H126.547V216.232H135.515V207.264Z" fill="black"/>
<path d="M144.484 207.264H135.515V216.232H144.484V207.264Z" fill="black"/>
<path d="M171.39 207.264H162.421V216.232H171.39V207.264Z" fill="black"/>
<path d="M198.295 207.264H189.327V216.232H198.295V207.264Z" fill="black"/>
<path d="M216.232 207.264H207.264V216.232H216.232V207.264Z" fill="black"/>
<path d="M234.17 207.264H225.201V216.232H234.17V207.264Z" fill="black"/>
<path d="M252.107 207.264H243.138V216.232H252.107V207.264Z" fill="black"/>
<path d="M18.9237 216.232H9.95508V225.201H18.9237V216.232Z" fill="black"/>
<path d="M72.7352 216.232H63.7666V225.201H72.7352V216.232Z" fill="black"/>
<path d="M90.6723 216.232H81.7037V225.201H90.6723V216.232Z" fill="black"/>
<path d="M99.6409 216.232H90.6723V225.201H99.6409V216.232Z" fill="black"/>
<path d="M153.452 216.232H144.484V225.201H153.452V216.232Z" fill="black"/>
<path d="M171.39 216.232H162.421V225.201H171.39V216.232Z" fill="black"/>
<path d="M180.358 216.232H171.39V225.201H180.358V216.232Z" fill="black"/>
<path d="M198.295 216.232H189.327V225.201H198.295V216.232Z" fill="black"/>
<path d="M234.17 216.232H225.201V225.201H234.17V216.232Z" fill="black"/>
<path d="M252.107 216.232H243.138V225.201H252.107V216.232Z" fill="black"/>
<path d="M18.9237 225.201H9.95508V234.17H18.9237V225.201Z" fill="black"/>
<path d="M36.8608 225.201H27.8922V234.17H36.8608V225.201Z" fill="black"/>
<path d="M45.8294 225.201H36.8608V234.17H45.8294V225.201Z" fill="black"/>
<path d="M54.798 225.201H45.8294V234.17H54.798V225.201Z" fill="black"/>
<path d="M72.7352 225.201H63.7666V234.17H72.7352V225.201Z" fill="black"/>
<path d="M90.6723 225.201H81.7037V234.17H90.6723V225.201Z" fill="black"/>
<path d="M99.6409 225.201H90.6723V234.17H99.6409V225.201Z" fill="black"/>
<path d="M108.609 225.201H99.6409V234.17H108.609V225.201Z" fill="black"/>
<path d="M117.578 225.201H108.609V234.17H117.578V225.201Z" fill="black"/>
<path d="M135.515 225.201H126.547V234.17H135.515V225.201Z" fill="black"/>
<path d="M171.39 225.201H162.421V234.17H171.39V225.201Z" fill="black"/>
<path d="M180.358 225.201H171.39V234.17H180.358V225.201Z" fill="black"/>
<path d="M198.295 225.201H189.327V234.17H198.295V225.201Z" fill="black"/>
<path d="M207.264 225.201H198.295V234.17H207.264V225.201Z" fill="black"/>
<path d="M216.232 225.201H207.264V234.17H216.232V225.201Z" fill="black"/>
<path d="M225.201 225.201H216.232V234.17H225.201V225.201Z" fill="black"/>
<path d="M234.17 225.201H225.201V234.17H234.17V225.201Z" fill="black"/>
<path d="M252.107 225.201H243.138V234.17H252.107V225.201Z" fill="black"/>
<path d="M261.075 225.201H252.107V234.17H261.075V225.201Z" fill="black"/>
<path d="M270.044 225.201H261.075V234.17H270.044V225.201Z" fill="black"/>
<path d="M18.9237 234.17H9.95508V243.138H18.9237V234.17Z" fill="black"/>
<path d="M36.8608 234.17H27.8922V243.138H36.8608V234.17Z" fill="black"/>
<path d="M45.8294 234.17H36.8608V243.138H45.8294V234.17Z" fill="black"/>
<path d="M54.798 234.17H45.8294V243.138H54.798V234.17Z" fill="black"/>
<path d="M72.7352 234.17H63.7666V243.138H72.7352V234.17Z" fill="black"/>
<path d="M90.6723 234.17H81.7037V243.138H90.6723V234.17Z" fill="black"/>
<path d="M108.609 234.17H99.6409V243.138H108.609V234.17Z" fill="black"/>
<path d="M117.578 234.17H108.609V243.138H117.578V234.17Z" fill="black"/>
<path d="M126.547 234.17H117.578V243.138H126.547V234.17Z" fill="black"/>
<path d="M144.484 234.17H135.515V243.138H144.484V234.17Z" fill="black"/>
<path d="M153.452 234.17H144.484V243.138H153.452V234.17Z" fill="black"/>
<path d="M162.421 234.17H153.452V243.138H162.421V234.17Z" fill="black"/>
<path d="M171.39 234.17H162.421V243.138H171.39V234.17Z" fill="black"/>
<path d="M189.327 234.17H180.358V243.138H189.327V234.17Z" fill="black"/>
<path d="M207.264 234.17H198.295V243.138H207.264V234.17Z" fill="black"/>
<path d="M216.232 234.17H207.264V243.138H216.232V234.17Z" fill="black"/>
<path d="M225.201 234.17H216.232V243.138H225.201V234.17Z" fill="black"/>
<path d="M234.17 234.17H225.201V243.138H234.17V234.17Z" fill="black"/>
<path d="M18.9237 243.138H9.95508V252.107H18.9237V243.138Z" fill="black"/>
<path d="M36.8608 243.138H27.8922V252.107H36.8608V243.138Z" fill="black"/>
<path d="M45.8294 243.138H36.8608V252.107H45.8294V243.138Z" fill="black"/>
<path d="M54.798 243.138H45.8294V252.107H54.798V243.138Z" fill="black"/>
<path d="M72.7352 243.138H63.7666V252.107H72.7352V243.138Z" fill="black"/>
<path d="M90.6723 243.138H81.7037V252.107H90.6723V243.138Z" fill="black"/>
<path d="M99.6409 243.138H90.6723V252.107H99.6409V243.138Z" fill="black"/>
<path d="M126.547 243.138H117.578V252.107H126.547V243.138Z" fill="black"/>
<path d="M144.484 243.138H135.515V252.107H144.484V243.138Z" fill="black"/>
<path d="M162.421 243.138H153.452V252.107H162.421V243.138Z" fill="black"/>
<path d="M198.295 243.138H189.327V252.107H198.295V243.138Z" fill="black"/>
<path d="M234.17 243.138H225.201V252.107H234.17V243.138Z" fill="black"/>
<path d="M252.107 243.138H243.138V252.107H252.107V243.138Z" fill="black"/>
<path d="M270.044 243.138H261.075V252.107H270.044V243.138Z" fill="black"/>
<path d="M18.9237 252.107H9.95508V261.075H18.9237V252.107Z" fill="black"/>
<path d="M72.7352 252.107H63.7666V261.075H72.7352V252.107Z" fill="black"/>
<path d="M99.6409 252.107H90.6723V261.075H99.6409V252.107Z" fill="black"/>
<path d="M135.515 252.107H126.547V261.075H135.515V252.107Z" fill="black"/>
<path d="M171.39 252.107H162.421V261.075H171.39V252.107Z" fill="black"/>
<path d="M189.327 252.107H180.358V261.075H189.327V252.107Z" fill="black"/>
<path d="M198.295 252.107H189.327V261.075H198.295V252.107Z" fill="black"/>
<path d="M225.201 252.107H216.232V261.075H225.201V252.107Z" fill="black"/>
<path d="M252.107 252.107H243.138V261.075H252.107V252.107Z" fill="black"/>
<path d="M261.075 252.107H252.107V261.075H261.075V252.107Z" fill="black"/>
<path d="M18.9237 261.075H9.95508V270.044H18.9237V261.075Z" fill="black"/>
<path d="M27.8922 261.075H18.9237V270.044H27.8922V261.075Z" fill="black"/>
<path d="M36.8608 261.075H27.8922V270.044H36.8608V261.075Z" fill="black"/>
<path d="M45.8294 261.075H36.8608V270.044H45.8294V261.075Z" fill="black"/>
<path d="M54.798 261.075H45.8294V270.044H54.798V261.075Z" fill="black"/>
<path d="M63.7666 261.075H54.798V270.044H63.7666V261.075Z" fill="black"/>
<path d="M72.7352 261.075H63.7666V270.044H72.7352V261.075Z" fill="black"/>
<path d="M99.6409 261.075H90.6723V270.044H99.6409V261.075Z" fill="black"/>
<path d="M117.578 261.075H108.609V270.044H117.578V261.075Z" fill="black"/>
<path d="M135.515 261.075H126.547V270.044H135.515V261.075Z" fill="black"/>
<path d="M171.39 261.075H162.421V270.044H171.39V261.075Z" fill="black"/>
<path d="M189.327 261.075H180.358V270.044H189.327V261.075Z" fill="black"/>
<path d="M225.201 261.075H216.232V270.044H225.201V261.075Z" fill="black"/>
<path d="M234.17 261.075H225.201V270.044H234.17V261.075Z" fill="black"/>
</g>
<defs>
<clipPath id="clip0_3102_91">
<rect width="280" height="280" fill="white"/>
</clipPath>
</defs>
</svg>
