<svg width="782" height="288" viewBox="0 0 782 288" fill="none" xmlns="http://www.w3.org/2000/svg">
<mask id="mask0_2133_808" style="mask-type:luminance" maskUnits="userSpaceOnUse" x="0" y="0" width="243" height="288">
<path d="M243 0H0V288H243V0Z" fill="white"/>
<path d="M234.4 188.1V216H192.7V279H156.7V216H13L108.1 9H192.7V188.1H234.4ZM60.7 188.1H156.7V23.4H136.3L60.7 188.1Z" fill="black"/>
</mask>
<g mask="url(#mask0_2133_808)">
<path d="M234.4 188.1H242.575V179.926H234.4V188.1ZM234.4 216V224.174H242.575V216H234.4ZM192.701 216V207.826H184.527V216H192.701ZM192.701 279V287.174H200.874V279H192.701ZM156.701 279H148.527V287.174H156.701V279ZM156.701 216H164.874V207.826H156.701V216ZM13.0005 216L5.5729 212.588L0.25 224.174H13.0005V216ZM108.101 9.00007V0.826172H102.861L100.673 5.58767L108.101 9.00007ZM192.701 9.00007H200.874V0.826172H192.701V9.00007ZM192.701 188.1H184.527V196.274H192.701V188.1ZM60.7005 188.1L53.2715 184.69L47.9545 196.274H60.7005V188.1ZM156.701 188.1V196.274H164.874V188.1H156.701ZM156.701 23.4001H164.874V15.2262H156.701V23.4001ZM136.301 23.4001V15.2262H131.059L128.872 19.9902L136.301 23.4001ZM226.227 188.1V216H242.575V188.1H226.227ZM234.4 207.826H192.701V224.174H234.4V207.826ZM184.527 216V279H200.874V216H184.527ZM192.701 270.826H156.701V287.174H192.701V270.826ZM164.874 279V216H148.527V279H164.874ZM156.701 207.826H13.0005V224.174H156.701V207.826ZM20.4281 219.412L115.529 12.4125L100.673 5.58767L5.5729 212.588L20.4281 219.412ZM108.101 17.174H192.701V0.826172H108.101V17.174ZM184.527 9.00007V188.1H200.874V9.00007H184.527ZM192.701 196.274H234.4V179.926H192.701V196.274ZM60.7005 196.274H156.701V179.926H60.7005V196.274ZM164.874 188.1V23.4001H148.527V188.1H164.874ZM156.701 15.2262H136.301V31.5741H156.701V15.2262ZM128.872 19.9902L53.2715 184.69L68.1295 191.51L143.73 26.8101L128.872 19.9902Z" fill="#262523"/>
</g>
<mask id="mask1_2133_808" style="mask-type:luminance" maskUnits="userSpaceOnUse" x="273" y="0" width="236" height="288">
<path d="M509 0H273V288H509V0Z" fill="white"/>
<path d="M391.5 279C371.1 279 352.6 273.7 336 263.1C319.4 252.5 306.2 237 296.4 216.6C286.8 196.2 282 172 282 144C282 116 286.8 91.8 296.4 71.4C306.2 51 319.4 35.5 336 24.9C352.6 14.3 371.1 9 391.5 9C411.7 9 430.1 14.3 446.7 24.9C463.3 35.5 476.4 51 486 71.4C495.6 91.8 500.4 116 500.4 144C500.4 172 495.6 196.2 486 216.6C476.4 237 463.3 252.5 446.7 263.1C430.1 273.7 411.7 279 391.5 279ZM391.5 242.7C417.3 242.7 435.9 234.8 447.3 219C458.7 203 464.4 178 464.4 144C464.4 110 458.7 85.1 447.3 69.3C435.9 53.3 417.3 45.3 391.5 45.3C365.5 45.3 346.7 53.3 335.1 69.3C323.7 85.1 318 110 318 144C318 178 323.7 203 335.1 219C346.7 234.8 365.5 242.7 391.5 242.7Z" fill="black"/>
</mask>
<g mask="url(#mask1_2133_808)">
<path d="M296.398 216.6L289.002 220.08L289.016 220.11L289.03 220.139L296.398 216.6ZM296.398 71.4001L289.03 67.8611L289.016 67.8901L289.002 67.9201L296.398 71.4001ZM447.298 219L453.927 223.783L453.941 223.763L453.955 223.743L447.298 219ZM447.298 69.3001L440.641 74.0431L440.655 74.0631L440.669 74.0831L447.298 69.3001ZM335.098 69.3001L328.48 64.5021L328.475 64.5101L328.469 64.5171L335.098 69.3001ZM335.098 219L328.441 223.743L328.475 223.79L328.509 223.837L335.098 219ZM391.498 270.826C372.598 270.826 355.635 265.941 340.397 256.211L331.599 269.989C349.561 281.459 369.598 287.174 391.498 287.174V270.826ZM340.397 256.211C325.261 246.546 313.007 232.298 303.766 213.061L289.03 220.139C299.389 241.702 313.535 258.454 331.599 269.989L340.397 256.211ZM303.794 213.12C294.815 194.039 290.172 171.081 290.172 144H273.824C273.824 172.919 278.781 198.361 289.002 220.08L303.794 213.12ZM290.172 144C290.172 116.919 294.815 93.9611 303.794 74.8801L289.002 67.9201C278.781 89.6391 273.824 115.081 273.824 144H290.172ZM303.766 74.9391C313.007 55.7021 325.261 41.4541 340.397 31.7891L331.599 18.0109C313.535 29.5461 299.389 46.2981 289.03 67.8611L303.766 74.9391ZM340.397 31.7891C355.635 22.0591 372.598 17.174 391.498 17.174V0.826172C369.598 0.826172 349.561 6.54087 331.599 18.0109L340.397 31.7891ZM391.498 17.174C410.181 17.174 427.048 22.0511 442.299 31.7891L451.097 18.0109C433.148 6.54947 413.215 0.826172 391.498 0.826172V17.174ZM442.299 31.7891C457.418 41.4441 469.562 55.6701 478.602 74.8801L493.394 67.9201C483.234 46.3301 469.178 29.5561 451.097 18.0109L442.299 31.7891ZM478.602 74.8801C487.581 93.9611 492.224 116.919 492.224 144H508.572C508.572 115.081 503.615 89.6391 493.394 67.9201L478.602 74.8801ZM492.224 144C492.224 171.081 487.581 194.039 478.602 213.12L493.394 220.08C503.615 198.361 508.572 172.919 508.572 144H492.224ZM478.602 213.12C469.562 232.33 457.418 246.556 442.299 256.211L451.097 269.989C469.178 258.444 483.234 241.67 493.394 220.08L478.602 213.12ZM442.299 256.211C427.048 265.949 410.181 270.826 391.498 270.826V287.174C413.215 287.174 433.148 281.451 451.097 269.989L442.299 256.211ZM391.498 250.874C418.992 250.874 440.516 242.37 453.927 223.783L440.669 214.217C431.28 227.23 415.604 234.526 391.498 234.526V250.874ZM453.955 223.743C466.832 205.67 472.572 178.594 472.572 144H456.224C456.224 177.406 450.564 200.33 440.641 214.257L453.955 223.743ZM472.572 144C472.572 109.419 466.837 82.4111 453.927 64.5171L440.669 74.0831C450.559 87.7891 456.224 110.581 456.224 144H472.572ZM453.955 64.5571C440.559 45.7561 419.03 37.1261 391.498 37.1261V53.4741C415.566 53.4741 431.237 60.8441 440.641 74.0431L453.955 64.5571ZM391.498 37.1261C363.785 37.1261 342.082 45.7411 328.48 64.5021L341.716 74.0981C351.314 60.8591 367.211 53.4741 391.498 53.4741V37.1261ZM328.469 64.5171C315.559 82.4111 309.824 109.419 309.824 144H326.172C326.172 110.581 331.837 87.7891 341.727 74.0831L328.469 64.5171ZM309.824 144C309.824 178.594 315.564 205.67 328.441 223.743L341.755 214.257C331.832 200.33 326.172 177.406 326.172 144H309.824ZM328.509 223.837C342.126 242.384 363.822 250.874 391.498 250.874V234.526C367.174 234.526 351.27 227.216 341.687 214.163L328.509 223.837Z" fill="#262523"/>
</g>
<mask id="mask2_2133_808" style="mask-type:luminance" maskUnits="userSpaceOnUse" x="539" y="0" width="243" height="288">
<path d="M782 0H539V288H782V0Z" fill="white"/>
<path d="M773.4 188.1V216H731.7V279H695.7V216H552L647.1 9H731.7V188.1H773.4ZM599.7 188.1H695.7V23.4H675.3L599.7 188.1Z" fill="black"/>
</mask>
<g mask="url(#mask2_2133_808)">
<path d="M773.401 188.1H781.575V179.926H773.401V188.1ZM773.401 216V224.174H781.575V216H773.401ZM731.701 216V207.826H723.527V216H731.701ZM731.701 279V287.174H739.875V279H731.701ZM695.701 279H687.527V287.174H695.701V279ZM695.701 216H703.875V207.826H695.701V216ZM552.001 216L544.573 212.588L539.25 224.174H552.001V216ZM647.101 9.00007V0.826172H641.861L639.673 5.58767L647.101 9.00007ZM731.701 9.00007H739.875V0.826172H731.701V9.00007ZM731.701 188.1H723.527V196.274H731.701V188.1ZM599.701 188.1L592.272 184.69L586.955 196.274H599.701V188.1ZM695.701 188.1V196.274H703.875V188.1H695.701ZM695.701 23.4001H703.875V15.2261H695.701V23.4001ZM675.301 23.4001V15.2261H670.059L667.872 19.9901L675.301 23.4001ZM765.227 188.1V216H781.575V188.1H765.227ZM773.401 207.826H731.701V224.174H773.401V207.826ZM723.527 216V279H739.875V216H723.527ZM731.701 270.826H695.701V287.174H731.701V270.826ZM703.875 279V216H687.527V279H703.875ZM695.701 207.826H552.001V224.174H695.701V207.826ZM559.429 219.412L654.529 12.4121L639.673 5.58767L544.573 212.588L559.429 219.412ZM647.101 17.1741H731.701V0.826172H647.101V17.1741ZM723.527 9.00007V188.1H739.875V9.00007H723.527ZM731.701 196.274H773.401V179.926H731.701V196.274ZM599.701 196.274H695.701V179.926H599.701V196.274ZM703.875 188.1V23.4001H687.527V188.1H703.875ZM695.701 15.2261H675.301V31.5741H695.701V15.2261ZM667.872 19.9901L592.272 184.69L607.13 191.51L682.73 26.8101L667.872 19.9901Z" fill="#262523"/>
</g>
</svg>
