<svg width="556" height="506" viewBox="0 0 556 506" fill="none" xmlns="http://www.w3.org/2000/svg">
<circle cx="485.964" cy="435.719" r="69.2809" transform="rotate(-180 485.964 435.719)" stroke="#091E05"/>
<circle cx="347.404" cy="435.719" r="69.2809" transform="rotate(-180 347.404 435.719)" stroke="#091E05"/>
<circle cx="208.841" cy="435.719" r="69.2809" transform="rotate(-180 208.841 435.719)" stroke="#091E05"/>
<circle cx="349.62" cy="192.964" r="69.2809" transform="rotate(-180 349.62 192.964)" stroke="#091E05"/>
<circle cx="209.06" cy="192.964" r="69.2809" transform="rotate(-180 209.06 192.964)" stroke="#091E05"/>
<circle cx="70.2806" cy="435.719" r="69.2809" transform="rotate(-180 70.2806 435.719)" stroke="#091E05"/>
<circle cx="418.099" cy="315.429" r="69.2809" transform="rotate(-180 418.099 315.429)" stroke="#091E05"/>
<circle cx="277.536" cy="315.429" r="69.2809" transform="rotate(-180 277.536 315.429)" stroke="#091E05"/>
<circle cx="279.536" cy="70.2811" r="69.2809" transform="rotate(-180 279.536 70.2811)" stroke="#091E05"/>
<circle cx="140.974" cy="315.429" r="69.2809" transform="rotate(-180 140.974 315.429)" stroke="#091E05"/>
</svg>
