<svg width="134" height="100" viewBox="0 0 134 100" fill="none" xmlns="http://www.w3.org/2000/svg">
<path d="M92.7507 67.5457C92.7507 64.0327 95.2217 61.4697 98.855 61.4697C102.679 61.4697 104.813 63.9629 104.813 67.5457C104.813 71.1285 102.757 73.6682 98.855 73.6682C95.2705 73.6682 92.7507 70.9191 92.7507 67.5457ZM87.7397 57.0339H89.9181V75.4208H92.7507V71.1246C93.6449 74.5212 95.9248 75.8822 99.0217 75.8822C103.769 75.8822 107.642 72.1637 107.642 67.5418C107.642 62.9199 103.769 59.2479 99.0217 59.2479C95.9208 59.2479 93.6449 60.6128 92.7507 64.0056V57.0067C92.7507 55.6457 91.7103 54.6492 90.2798 54.6492H87.7397V57.03V57.0339ZM79.5464 73.1796V59.2479H76.7137V68.073C76.7137 70.8221 75.4295 73.1796 71.3369 73.1796C68.8659 73.1796 67.4394 71.6791 67.4394 68.6973V59.2479H64.6068V68.6973C64.6068 72.7647 66.9558 75.4208 71.3613 75.4208C74.4866 75.4208 76.0594 74.1257 76.7137 72.3033V73.0672C76.7137 74.4321 77.7542 75.4247 79.1847 75.4247H81.7289V73.1835H79.5505L79.5464 73.1796ZM49.9597 75.4208H57.2223V73.1796H55.0439V56.4561C55.0439 55.0913 53.7596 54.0986 52.3331 54.0986H49.9597V56.3398H52.1381V73.1796H49.9597V75.4208ZM26.3594 67.313C26.3594 71.935 29.9683 75.6535 34.7111 75.6535C39.9416 75.6535 42.945 72.8113 43.0182 69.1626L39.9904 69.1161C39.5312 71.7721 38.3688 73.0905 34.7111 73.0905C31.346 73.0905 29.3343 70.6438 29.3343 67.3169C29.3343 63.99 31.346 61.586 34.7111 61.586C38.3688 61.586 39.5312 62.695 39.9904 65.5604L43.0182 65.5139C42.945 61.8652 39.9416 59.023 34.7111 59.023C29.9642 59.023 26.3594 62.7415 26.3594 67.3169V67.313Z" fill="#091E05"/>
<path fill-rule="evenodd" clip-rule="evenodd" d="M8.44214 31.345V24.668H12.9207C16.3345 24.668 18.5616 24.9201 18.5616 27.9716C18.5616 31.0232 16.3345 31.345 12.9207 31.345H8.44214ZM5.70703 43.0821H8.44214V33.7025H12.9207C18.1512 33.7025 21.3943 32.202 21.3943 27.9716C21.3943 23.7413 18.1512 22.3105 12.9207 22.3105H5.70703V43.0783V43.0821Z" fill="#091E05"/>
<path fill-rule="evenodd" clip-rule="evenodd" d="M43.7461 40.8419V26.9102H40.9135V35.7353C40.9135 38.4844 39.6292 40.8419 35.5367 40.8419C33.0658 40.8419 31.6393 39.3413 31.6393 36.3595V26.9102H28.8066V36.3595C28.8066 40.427 31.1557 43.0831 35.5611 43.0831C38.6864 43.0831 40.2591 41.788 40.9135 39.9656V40.7294C40.9135 42.0943 41.9539 43.0869 43.3844 43.0869H45.9285V40.8458H43.7502L43.7461 40.8419Z" fill="#091E05"/>
<path fill-rule="evenodd" clip-rule="evenodd" d="M57.8119 35.2031C57.8119 31.6901 60.2829 29.1271 63.9121 29.1271C67.7363 29.1271 69.87 31.6242 69.87 35.2031C69.87 38.782 67.8136 41.3256 63.9121 41.3256C60.3276 41.3256 57.8119 38.5765 57.8119 35.2031ZM52.8009 24.6913H54.9793V43.0821H57.8119V38.7859C58.706 42.1826 60.9859 43.5435 64.0828 43.5435C68.8296 43.5435 72.7026 39.8251 72.7026 35.2031C72.7026 30.5812 68.8296 26.9092 64.0828 26.9092C60.9819 26.9092 58.706 28.2702 57.8119 31.6669V24.668C57.8119 23.3032 56.7715 22.3105 55.341 22.3105H52.7969V24.6913H52.8009Z" fill="#091E05"/>
<path fill-rule="evenodd" clip-rule="evenodd" d="M79.2656 43.0829H86.5281V40.8417H84.3498V24.1143C84.3498 22.7533 83.0655 21.7568 81.639 21.7568H79.2656V23.998H81.444V40.8378H79.2656V43.079V43.0829Z" fill="#091E05"/>
<path fill-rule="evenodd" clip-rule="evenodd" d="M101.47 40.841V29.2667C101.47 27.9018 100.429 26.9092 98.9987 26.9092H94.2031V29.1504H98.7061V40.841H94.2763V43.0821H105.899V40.841H101.47ZM102.075 23.0511L101.023 22.0469H98.1737L97.1089 23.0511L99.6043 25.4086L102.075 23.0511Z" fill="#091E05"/>
<path fill-rule="evenodd" clip-rule="evenodd" d="M111.641 34.9746C111.641 39.5965 115.25 43.315 119.992 43.315C125.223 43.315 128.226 40.4728 128.295 36.8241L125.267 36.7776C124.808 39.4337 123.646 40.752 119.988 40.752C116.623 40.752 114.611 38.3053 114.611 34.9785C114.611 31.6516 116.619 29.2476 119.988 29.2476C123.646 29.2476 124.808 30.3565 125.267 33.222L128.295 33.1754C128.222 29.5268 125.219 26.6846 119.992 26.6846C115.245 26.6846 111.641 30.4031 111.641 34.9785" fill="#091E05"/>
<path d="M91.9861 97.5341C92.1243 97.6504 92.2299 97.7823 92.3031 97.9335C92.3762 98.0847 92.4128 98.2708 92.4128 98.488C92.4128 98.9261 92.2421 99.2867 91.8967 99.5698C91.5512 99.8489 91.1082 99.9885 90.5596 99.9885C90.271 99.9885 90.0028 99.9381 89.759 99.8334C89.5151 99.7326 89.3444 99.6396 89.2388 99.5543L89.1372 99.8683H88.7552L88.7023 98.2165H89.0559C89.0843 98.3445 89.1412 98.4918 89.2266 98.6586C89.316 98.8253 89.4217 98.9804 89.5436 99.1161C89.6736 99.2596 89.8321 99.3798 90.015 99.4767C90.1979 99.5736 90.4011 99.6202 90.6327 99.6202C90.9538 99.6202 91.2017 99.5504 91.3765 99.4108C91.5512 99.2712 91.6366 99.0696 91.6366 98.8059C91.6366 98.6702 91.6081 98.5577 91.5553 98.4569C91.5025 98.36 91.4212 98.2747 91.3114 98.201C91.2017 98.1273 91.0635 98.0614 90.905 97.9994C90.7425 97.9412 90.5637 97.8831 90.3645 97.8249C90.206 97.7784 90.0313 97.7163 89.8362 97.6388C89.6452 97.5612 89.4786 97.4682 89.3404 97.3635C89.1941 97.251 89.0722 97.1153 88.9787 96.9486C88.8852 96.7857 88.8364 96.5919 88.8364 96.3709C88.8364 95.9831 88.9868 95.6535 89.2916 95.3821C89.5924 95.1107 89.9988 94.9788 90.5068 94.9788C90.7018 94.9788 90.901 95.0021 91.1042 95.0525C91.3074 95.099 91.474 95.1572 91.6 95.227L91.7178 94.9633H92.0796L92.1527 96.4949H91.7991C91.73 96.1537 91.5797 95.8823 91.344 95.669C91.1123 95.4558 90.8278 95.3511 90.4946 95.3511C90.2182 95.3511 90.0028 95.417 89.8484 95.5488C89.6899 95.6807 89.6127 95.8435 89.6127 96.0296C89.6127 96.1731 89.6371 96.2933 89.6899 96.3902C89.7427 96.4872 89.8199 96.5686 89.9256 96.6345C90.0272 96.7004 90.1532 96.7586 90.3076 96.8168C90.458 96.8711 90.649 96.937 90.8725 97.0068C91.0961 97.0727 91.3033 97.1541 91.4984 97.2433C91.6975 97.3325 91.856 97.4333 91.982 97.5419M84.7399 98.9416V96.1654C84.7114 96.08 84.6708 95.9909 84.6098 95.8939C84.5489 95.797 84.4716 95.7078 84.3822 95.6303C84.2847 95.5527 84.1709 95.4829 84.0368 95.4325C83.9067 95.3821 83.7523 95.355 83.5775 95.355C83.3743 95.355 83.1874 95.4054 83.0167 95.5062C82.846 95.6031 82.6916 95.7466 82.5615 95.9327C82.4355 96.1111 82.338 96.3398 82.2649 96.619C82.1917 96.8982 82.1551 97.2045 82.1551 97.5419C82.1551 97.8133 82.1836 98.0537 82.2364 98.2747C82.2892 98.4957 82.3827 98.7012 82.5128 98.8873C82.6306 99.0657 82.781 99.2092 82.9679 99.3216C83.1508 99.4302 83.3703 99.4845 83.6263 99.4845C83.8986 99.4845 84.1221 99.4302 84.3009 99.3177C84.4798 99.2053 84.6261 99.0812 84.748 98.9455L84.7399 98.9416ZM86.5728 99.7753L84.8252 99.8838L84.748 99.8141V99.372L84.7074 99.3604C84.5326 99.5504 84.3172 99.7016 84.0571 99.8218C83.8011 99.942 83.5328 100 83.2606 100C82.9883 100 82.7038 99.9381 82.4396 99.8179C82.1755 99.6977 81.9438 99.5271 81.7487 99.31C81.5496 99.089 81.3911 98.8214 81.2773 98.5112C81.1635 98.201 81.1025 97.8559 81.1025 97.4798C81.1025 97.1347 81.1635 96.809 81.2895 96.4988C81.4155 96.1886 81.5862 95.9211 81.8056 95.6884C82.0088 95.4752 82.2608 95.3007 82.5615 95.1727C82.8582 95.0448 83.163 94.9788 83.4759 94.9788C83.7076 94.9788 83.9352 95.006 84.1628 95.0642C84.3863 95.1184 84.5773 95.1921 84.7399 95.2774V93.614C84.7399 93.4783 84.7155 93.3542 84.6708 93.2417C84.622 93.1293 84.557 93.044 84.4716 92.9897C84.3782 92.9277 84.2522 92.885 84.0896 92.8579C83.9311 92.8307 83.7564 92.8113 83.5694 92.7958V92.5011L85.6177 92.3926L85.6949 92.4663V98.8796C85.6949 98.992 85.7193 99.0851 85.764 99.1665C85.8087 99.2441 85.8778 99.31 85.9632 99.3681C86.0282 99.4069 86.1217 99.4302 86.2436 99.4418C86.3655 99.4496 86.4752 99.4573 86.5768 99.4612V99.7753H86.5728ZM79.0624 95.7117C79.0624 95.8745 79.0217 96.018 78.9364 96.146C78.8511 96.2739 78.721 96.336 78.5462 96.336C78.3593 96.336 78.213 96.2894 78.1114 96.1964C78.0139 96.1033 77.961 95.9986 77.961 95.8862C77.961 95.8164 77.9651 95.7543 77.9773 95.6962C77.9895 95.638 78.0017 95.5799 78.0098 95.5217C77.8513 95.5217 77.6684 95.5837 77.4611 95.7039C77.2498 95.8241 77.0751 95.9986 76.9247 96.2235V98.9998C76.9247 99.1122 76.9491 99.2014 76.9938 99.2751C77.0385 99.3488 77.1116 99.3992 77.2092 99.4341C77.2905 99.469 77.4002 99.4922 77.5343 99.5077C77.6684 99.5232 77.7822 99.5349 77.8797 99.5426V99.8606H75.2381V99.5426C75.3153 99.5349 75.3966 99.531 75.4819 99.5232C75.5632 99.5155 75.6364 99.5039 75.6973 99.4845C75.7908 99.4534 75.864 99.4069 75.9087 99.3332C75.9534 99.2596 75.9778 99.1665 75.9778 99.0502V96.1149C75.9778 96.018 75.9534 95.9172 75.9046 95.8203C75.8558 95.7233 75.7868 95.6458 75.6973 95.5876C75.6323 95.5488 75.5592 95.5217 75.4698 95.5023C75.3803 95.4829 75.2869 95.4713 75.1853 95.4674V95.1495L76.8556 95.0409L76.9247 95.1068V95.7699H76.9491C77.1563 95.5101 77.388 95.3084 77.644 95.1766C77.9001 95.0409 78.1317 94.975 78.343 94.975C78.5544 94.975 78.7251 95.0409 78.8592 95.1727C78.9933 95.3046 79.0583 95.479 79.0583 95.7039L79.0624 95.7117ZM71.3529 97.2355C71.0643 97.317 70.8124 97.3945 70.5929 97.4721C70.3734 97.5496 70.1743 97.6465 69.9874 97.7629C69.8167 97.8714 69.6825 98.0033 69.585 98.1506C69.4875 98.3018 69.4346 98.4763 69.4346 98.6857C69.4346 98.9532 69.5078 99.1471 69.6541 99.2751C69.8004 99.3992 69.9874 99.4651 70.2149 99.4651C70.4547 99.4651 70.666 99.4108 70.8489 99.2983C71.0318 99.1898 71.1862 99.0579 71.3082 98.9028L71.3488 97.2394L71.3529 97.2355ZM73.1248 99.7791C72.9622 99.8334 72.8241 99.88 72.7021 99.911C72.5802 99.9459 72.4461 99.9614 72.2917 99.9614C72.0275 99.9614 71.8121 99.9032 71.6577 99.7869C71.4992 99.6706 71.3976 99.5 71.3529 99.2712H71.3204C71.105 99.5038 70.8692 99.6783 70.6173 99.7985C70.3653 99.9187 70.0646 99.9808 69.711 99.9808C69.3371 99.9808 69.0323 99.8722 68.7925 99.6512C68.5527 99.4341 68.4308 99.1471 68.4308 98.7943C68.4308 98.612 68.4593 98.4492 68.5121 98.3018C68.5649 98.1584 68.6462 98.0265 68.7559 97.9102C68.8413 97.8133 68.951 97.728 69.0892 97.6543C69.2274 97.5806 69.3574 97.5186 69.4793 97.4721C69.6297 97.4178 69.9386 97.317 70.4019 97.1696C70.8652 97.0223 71.1781 96.906 71.3407 96.8245V96.3515C71.3407 96.3088 71.3326 96.2313 71.3122 96.1111C71.2919 95.9909 71.2553 95.8823 71.1944 95.7737C71.1253 95.6535 71.0318 95.5527 70.9058 95.4635C70.7798 95.3782 70.6051 95.3317 70.3775 95.3317C70.2231 95.3317 70.0768 95.355 69.9426 95.4054C69.8085 95.4558 69.7151 95.5062 69.6622 95.5605C69.6622 95.6264 69.6785 95.7194 69.711 95.8435C69.7435 95.9676 69.7598 96.0839 69.7598 96.1886C69.7598 96.3011 69.7069 96.4019 69.6013 96.4949C69.4956 96.588 69.3493 96.6345 69.1623 96.6345C68.9957 96.6345 68.8697 96.5764 68.7925 96.4639C68.7153 96.3515 68.6747 96.2235 68.6747 96.0839C68.6747 95.9366 68.7316 95.797 68.8413 95.6613C68.951 95.5256 69.0933 95.4054 69.2721 95.3007C69.4224 95.2115 69.6094 95.1339 69.8248 95.0719C70.0402 95.0099 70.2515 94.9788 70.4588 94.9788C70.7433 94.9788 70.9912 94.9982 71.2025 95.0331C71.4138 95.068 71.6089 95.1495 71.7796 95.2697C71.9503 95.3899 72.0803 95.5488 72.1697 95.7543C72.2592 95.9598 72.3039 96.2196 72.3039 96.5415C72.3039 96.999 72.2998 97.4061 72.2876 97.7629C72.2795 98.1157 72.2713 98.5035 72.2713 98.9261C72.2713 99.0502 72.2957 99.151 72.3404 99.2247C72.3851 99.2983 72.4583 99.3604 72.5518 99.4147C72.6046 99.4418 72.6818 99.4573 72.7915 99.4612C72.9013 99.4612 73.0151 99.4651 73.1289 99.4651V99.7753L73.1248 99.7791ZM65.5169 93.1681C65.5169 93.3542 65.4519 93.5132 65.3259 93.6489C65.1999 93.7846 65.0455 93.8544 64.8585 93.8544C64.6878 93.8544 64.5375 93.7885 64.4115 93.6566C64.2855 93.5287 64.2205 93.3775 64.2205 93.2107C64.2205 93.0324 64.2855 92.8773 64.4115 92.7454C64.5375 92.6136 64.6878 92.5477 64.8585 92.5477C65.0495 92.5477 65.208 92.6097 65.3299 92.7338C65.4519 92.8579 65.5128 93.0013 65.5128 93.1642L65.5169 93.1681ZM66.1509 99.8644H63.7287V99.5465C63.8059 99.5388 63.8872 99.5349 63.9685 99.5271C64.0498 99.5194 64.1229 99.5077 64.1839 99.4883C64.2773 99.4573 64.3505 99.4108 64.3952 99.3371C64.444 99.2634 64.4643 99.1704 64.4643 99.0541V96.1188C64.4643 96.018 64.4399 95.9211 64.3911 95.8358C64.3424 95.7505 64.2774 95.6807 64.1879 95.6225C64.1229 95.5837 64.0335 95.5488 63.9116 95.5256C63.7937 95.4984 63.684 95.4829 63.5824 95.4752V95.1572L65.3462 95.0486L65.4153 95.1146V98.992C65.4153 99.1045 65.4397 99.1975 65.4844 99.2712C65.5331 99.3449 65.6022 99.3992 65.6998 99.4341C65.7729 99.4612 65.8461 99.4845 65.9192 99.5038C65.9883 99.5232 66.0696 99.5349 66.1549 99.5387V99.8567L66.1509 99.8644ZM61.4732 99.8644H59.0388V99.5465C59.116 99.5388 59.1973 99.5349 59.2867 99.5232C59.3761 99.5155 59.4452 99.5038 59.5062 99.4883C59.5996 99.4573 59.6687 99.4108 59.7175 99.3371C59.7622 99.2634 59.7866 99.1704 59.7866 99.0541V93.5442C59.7866 93.4279 59.7622 93.3193 59.7094 93.2185C59.6565 93.1177 59.5874 93.0362 59.5021 92.982C59.4411 92.9432 59.3314 92.9083 59.1688 92.8734C59.0063 92.8424 58.8803 92.823 58.7787 92.8152V92.5011L60.6644 92.3926L60.7335 92.4663V98.9959C60.7335 99.1083 60.7579 99.2014 60.7985 99.2751C60.8432 99.3488 60.9123 99.403 61.0058 99.4418C61.0789 99.4767 61.1521 99.5 61.2212 99.5155C61.2943 99.531 61.3756 99.5426 61.465 99.5504V99.8683L61.4732 99.8644ZM56.8767 99.8644H54.4423V99.5465C54.5196 99.5388 54.6008 99.5349 54.6902 99.5232C54.7797 99.5155 54.8487 99.5038 54.9097 99.4883C55.0032 99.4573 55.0723 99.4108 55.121 99.3371C55.1657 99.2634 55.1901 99.1704 55.1901 99.0541V93.5442C55.1901 93.4279 55.1657 93.3193 55.1129 93.2185C55.0601 93.1177 54.991 93.0362 54.9056 92.982C54.8447 92.9432 54.735 92.9083 54.5724 92.8734C54.4098 92.8424 54.2838 92.823 54.1822 92.8152V92.5011L56.068 92.3926L56.1371 92.4663V98.9959C56.1371 99.1083 56.1614 99.2014 56.2021 99.2751C56.2468 99.3488 56.3159 99.403 56.4093 99.4418C56.4825 99.4767 56.5556 99.5 56.6247 99.5155C56.6979 99.531 56.7792 99.5426 56.8686 99.5504V99.8683L56.8767 99.8644ZM51.6625 93.1681C51.6625 93.3542 51.5975 93.5132 51.4715 93.6489C51.3455 93.7846 51.1911 93.8544 51.0041 93.8544C50.8335 93.8544 50.6831 93.7885 50.5571 93.6566C50.4311 93.5287 50.3661 93.3775 50.3661 93.2107C50.3661 93.0324 50.4311 92.8773 50.5571 92.7454C50.6831 92.6136 50.8335 92.5477 51.0041 92.5477C51.1992 92.5477 51.3537 92.6097 51.4756 92.7338C51.5975 92.8579 51.6585 93.0013 51.6585 93.1642L51.6625 93.1681ZM52.2925 99.8644H49.8703V99.5465C49.9475 99.5388 50.0288 99.5349 50.1101 99.5271C50.1913 99.5194 50.2645 99.5077 50.3255 99.4883C50.4189 99.4573 50.4921 99.4108 50.5368 99.3371C50.5856 99.2634 50.6059 99.1704 50.6059 99.0541V96.1188C50.6059 96.018 50.5815 95.9211 50.5327 95.8358C50.4839 95.7505 50.4189 95.6807 50.3295 95.6225C50.2645 95.5837 50.1751 95.5488 50.0532 95.5256C49.9353 95.4984 49.8256 95.4829 49.724 95.4752V95.1572L51.4878 95.0486L51.5569 95.1146V98.992C51.5569 99.1045 51.5812 99.1975 51.6259 99.2712C51.6707 99.3449 51.7438 99.3992 51.8413 99.4341C51.9145 99.4612 51.9876 99.4845 52.0567 99.5038C52.1258 99.5232 52.2071 99.5349 52.2925 99.5387V99.8567V99.8644ZM46.1679 97.8288C46.1679 97.4255 46.0257 97.0921 45.7412 96.8362C45.4567 96.5764 45.0503 96.4445 44.5179 96.4445C44.3025 96.4445 44.1196 96.4445 43.9733 96.4523C43.823 96.4562 43.7132 96.46 43.6401 96.4639V98.8679C43.6401 99.0696 43.7254 99.2208 43.8961 99.3255C44.0709 99.4263 44.3107 99.4767 44.6155 99.4767C45.1194 99.4767 45.5014 99.3371 45.7696 99.0579C46.0338 98.7788 46.1679 98.3678 46.1679 97.8288ZM45.473 95.6419C45.599 95.5023 45.6843 95.3511 45.7331 95.1882C45.7818 95.0254 45.8062 94.8276 45.8062 94.6027C45.8062 94.2266 45.7006 93.9281 45.4852 93.7148C45.2698 93.4977 44.9284 93.393 44.4651 93.393C44.3554 93.393 44.2212 93.393 44.0587 93.4007C43.8961 93.4046 43.7579 93.4085 43.6441 93.4124V96.049H44.2863C44.5626 96.049 44.8024 96.0141 44.9975 95.9482C45.1926 95.8823 45.351 95.7776 45.477 95.6419H45.473ZM46.6922 96.6772C46.8995 96.8129 47.0742 96.9874 47.2124 97.2084C47.3506 97.4255 47.4197 97.6892 47.4197 98.0033C47.4197 98.3173 47.3465 98.5965 47.2043 98.833C47.058 99.0657 46.871 99.2596 46.6394 99.4108C46.4118 99.5581 46.1557 99.6706 45.8712 99.7481C45.5868 99.8257 45.2942 99.8644 44.9893 99.8644H41.5918V99.5194C41.6731 99.5116 41.7909 99.5 41.9454 99.4767C42.0998 99.4534 42.2095 99.4302 42.2786 99.403C42.3843 99.3565 42.4574 99.2983 42.5021 99.2208C42.5469 99.1432 42.5672 99.0463 42.5672 98.93V94.0134C42.5672 93.9048 42.5469 93.8079 42.5103 93.7264C42.4696 93.6411 42.3924 93.5752 42.2786 93.5248C42.177 93.4744 42.0632 93.4395 41.9372 93.4124C41.8113 93.3891 41.7056 93.3697 41.6202 93.3658V93.0207H44.9446C45.2007 93.0207 45.4486 93.044 45.6802 93.0944C45.916 93.1409 46.1395 93.2262 46.3508 93.3503C46.5499 93.4628 46.7166 93.6179 46.8426 93.8117C46.9726 94.0056 47.0376 94.2421 47.0376 94.5174C47.0376 94.7578 46.9929 94.975 46.8995 95.1611C46.81 95.3511 46.68 95.5139 46.5134 95.6458C46.3589 95.7737 46.1801 95.8862 45.981 95.9715C45.7778 96.0607 45.5624 96.1305 45.3307 96.177V96.2196C45.538 96.2429 45.7656 96.2894 46.0216 96.367C46.2736 96.4445 46.5052 96.5492 46.7003 96.6849L46.6922 96.6772Z" fill="#091E05"/>
<path fill-rule="evenodd" clip-rule="evenodd" d="M40.95 0.124079L1.21923 0C0.548655 0 0 0.523458 0 1.16712V1.93098C0 2.57076 0.548655 3.09422 1.21923 3.09422L40.95 2.97014V0.124079ZM130.47 0.407134L43.7827 0.135711V2.95851L130.47 2.68708V0.407134ZM133.108 2.67933C133.6 2.67933 134.002 2.29546 134.002 1.82629V1.26793C134.002 0.798758 133.6 0.414889 133.108 0.414889H131.868V2.67933H133.108Z" fill="#091E05"/>
</svg>
