<svg width="448" height="332" viewBox="0 0 448 332" fill="none" xmlns="http://www.w3.org/2000/svg">
<path d="M310.089 224.252C310.089 212.589 318.35 204.08 330.497 204.08C343.283 204.08 350.416 212.357 350.416 224.252C350.416 236.147 343.541 244.579 330.497 244.579C318.513 244.579 310.089 235.452 310.089 224.252ZM293.336 189.353H300.619V250.397H310.089V236.134C313.078 247.411 320.701 251.929 331.054 251.929C346.924 251.929 359.873 239.584 359.873 224.239C359.873 208.894 346.924 196.703 331.054 196.703C320.687 196.703 313.078 201.235 310.089 212.499V189.263C310.089 184.744 306.611 181.436 301.828 181.436H293.336V189.34V189.353ZM265.944 242.957V196.703H256.473V226.003C256.473 235.13 252.18 242.957 238.497 242.957C230.236 242.957 225.467 237.975 225.467 228.075V196.703H215.997V228.075C215.997 241.579 223.85 250.397 238.579 250.397C249.028 250.397 254.286 246.098 256.473 240.047V242.583C256.473 247.115 259.952 250.41 264.735 250.41H273.24V242.97H265.957L265.944 242.957ZM167.028 250.397H191.309V242.957H184.026V187.435C184.026 182.903 179.732 179.608 174.963 179.608H167.028V187.048H174.311V242.957H167.028V250.397ZM88.127 223.48C88.127 238.824 100.192 251.17 116.049 251.17C133.536 251.17 143.577 241.734 143.821 229.62L133.699 229.466C132.163 238.284 128.277 242.661 116.049 242.661C104.799 242.661 98.0728 234.538 98.0728 223.492C98.0728 212.447 104.799 204.466 116.049 204.466C128.277 204.466 132.163 208.148 133.699 217.661L143.821 217.506C143.577 205.393 133.536 195.957 116.049 195.957C100.179 195.957 88.127 208.302 88.127 223.492V223.48Z" fill="#E8E2D8"/>
<path fill-rule="evenodd" clip-rule="evenodd" d="M28.2204 104.067V81.8994H43.1936C54.6069 81.8994 62.0528 82.7362 62.0528 92.8674C62.0528 102.999 54.6069 104.067 43.1936 104.067H28.2204ZM19.0762 143.034H28.2204V111.894H43.1936C60.6804 111.894 71.5231 106.912 71.5231 92.8674C71.5231 78.8227 60.6804 74.0725 43.1936 74.0725H19.0762V143.021V143.034Z" fill="#E8E2D8"/>
<path fill-rule="evenodd" clip-rule="evenodd" d="M146.254 135.594V89.3403H136.783V118.64C136.783 127.767 132.49 135.594 118.807 135.594C110.546 135.594 105.777 130.612 105.777 120.712V89.3403H96.3066V120.712C96.3066 134.216 104.16 143.034 118.889 143.034C129.337 143.034 134.596 138.735 136.783 132.684V135.22C136.783 139.752 140.262 143.047 145.044 143.047H153.55V135.607H146.267L146.254 135.594Z" fill="#E8E2D8"/>
<path fill-rule="evenodd" clip-rule="evenodd" d="M193.278 116.876C193.278 105.213 201.539 96.7036 213.673 96.7036C226.459 96.7036 233.592 104.994 233.592 116.876C233.592 128.758 226.717 137.203 213.673 137.203C201.689 137.203 193.278 128.076 193.278 116.876ZM176.525 81.9767H183.808V143.034H193.278V128.771C196.268 140.048 203.89 144.566 214.244 144.566C230.114 144.566 243.062 132.221 243.062 116.876C243.062 101.531 230.114 89.3401 214.244 89.3401C203.877 89.3401 196.268 93.8586 193.278 105.136V81.8994C193.278 77.368 189.8 74.0725 185.017 74.0725H176.512V81.9767H176.525Z" fill="#E8E2D8"/>
<path fill-rule="evenodd" clip-rule="evenodd" d="M265.006 143.034H289.286V135.593H282.004V80.0583C282.004 75.5399 277.71 72.2314 272.941 72.2314H265.006V79.6722H272.289V135.58H265.006V143.021V143.034Z" fill="#E8E2D8"/>
<path fill-rule="evenodd" clip-rule="evenodd" d="M339.235 135.593V97.1669C339.235 92.6356 335.757 89.34 330.974 89.34H314.941V96.7807H329.996V135.593H315.186V143.034H354.046V135.593H339.235ZM341.26 76.5312L337.741 73.197H328.216L324.656 76.5312L332.999 84.3581L341.26 76.5312Z" fill="#E8E2D8"/>
<path fill-rule="evenodd" clip-rule="evenodd" d="M373.244 116.116C373.244 131.461 385.31 143.807 401.166 143.807C418.653 143.807 428.694 134.371 428.925 122.257L418.802 122.102C417.267 130.921 413.381 135.297 401.152 135.297C389.902 135.297 383.176 127.174 383.176 116.129C383.176 105.084 389.889 97.1027 401.152 97.1027C413.381 97.1027 417.267 100.784 418.802 110.298L428.925 110.143C428.68 98.0296 418.639 88.5935 401.166 88.5935C385.296 88.5935 373.244 100.939 373.244 116.129" fill="#E8E2D8"/>
<path d="M307.533 323.813C307.995 324.199 308.348 324.637 308.593 325.139C308.838 325.641 308.96 326.259 308.96 326.98C308.96 328.434 308.389 329.631 307.234 330.571C306.079 331.498 304.598 331.962 302.764 331.962C301.799 331.962 300.903 331.794 300.087 331.447C299.272 331.112 298.701 330.803 298.348 330.52L298.008 331.562H296.731L296.555 326.078H297.737C297.832 326.503 298.022 326.992 298.307 327.546C298.606 328.1 298.96 328.614 299.367 329.065C299.802 329.541 300.332 329.94 300.943 330.262C301.555 330.584 302.234 330.739 303.009 330.739C304.082 330.739 304.911 330.507 305.495 330.043C306.079 329.58 306.365 328.911 306.365 328.035C306.365 327.585 306.27 327.211 306.093 326.877C305.916 326.555 305.645 326.272 305.278 326.027C304.911 325.782 304.449 325.564 303.919 325.358C303.375 325.164 302.778 324.971 302.112 324.778C301.582 324.624 300.998 324.418 300.345 324.16C299.707 323.903 299.15 323.594 298.688 323.246C298.199 322.873 297.791 322.422 297.479 321.869C297.166 321.328 297.003 320.685 297.003 319.951C297.003 318.663 297.506 317.569 298.525 316.668C299.53 315.767 300.889 315.329 302.587 315.329C303.24 315.329 303.905 315.407 304.585 315.574C305.264 315.728 305.821 315.922 306.242 316.153L306.636 315.278H307.846L308.09 320.363H306.908C306.677 319.23 306.174 318.329 305.386 317.621C304.612 316.913 303.661 316.565 302.547 316.565C301.623 316.565 300.903 316.784 300.386 317.222C299.856 317.659 299.598 318.2 299.598 318.818C299.598 319.294 299.68 319.693 299.856 320.015C300.033 320.337 300.291 320.607 300.644 320.826C300.984 321.045 301.405 321.238 301.922 321.431C302.424 321.611 303.063 321.83 303.81 322.062C304.558 322.281 305.25 322.551 305.903 322.847C306.568 323.143 307.098 323.478 307.52 323.839M283.307 328.486V319.269C283.212 318.985 283.076 318.689 282.872 318.367C282.668 318.046 282.41 317.75 282.111 317.492C281.785 317.235 281.405 317.003 280.956 316.836C280.522 316.668 280.005 316.578 279.421 316.578C278.742 316.578 278.117 316.745 277.546 317.08C276.975 317.402 276.459 317.878 276.024 318.496C275.603 319.088 275.277 319.848 275.032 320.775C274.788 321.702 274.665 322.719 274.665 323.839C274.665 324.74 274.761 325.538 274.937 326.272C275.114 327.005 275.426 327.688 275.861 328.306C276.255 328.898 276.758 329.374 277.383 329.747C277.994 330.108 278.728 330.288 279.584 330.288C280.494 330.288 281.242 330.108 281.84 329.734C282.437 329.361 282.927 328.949 283.334 328.499L283.307 328.486ZM289.435 331.254L283.592 331.614L283.334 331.382V329.915L283.198 329.876C282.614 330.507 281.894 331.009 281.024 331.408C280.168 331.807 279.272 332 278.361 332C277.451 332 276.5 331.794 275.617 331.395C274.733 330.996 273.959 330.43 273.307 329.709C272.641 328.975 272.111 328.087 271.731 327.057C271.35 326.027 271.146 324.881 271.146 323.633C271.146 322.487 271.35 321.405 271.771 320.376C272.193 319.346 272.763 318.458 273.497 317.685C274.176 316.977 275.019 316.398 276.024 315.973C277.016 315.548 278.035 315.329 279.081 315.329C279.856 315.329 280.617 315.419 281.378 315.613C282.125 315.793 282.764 316.037 283.307 316.321V310.798C283.307 310.347 283.225 309.935 283.076 309.562C282.913 309.189 282.696 308.906 282.41 308.725C282.098 308.519 281.677 308.378 281.133 308.288C280.603 308.198 280.019 308.133 279.394 308.082V307.103L286.242 306.743L286.5 306.988V328.28C286.5 328.653 286.582 328.962 286.731 329.232C286.88 329.49 287.111 329.709 287.397 329.902C287.614 330.031 287.927 330.108 288.334 330.146C288.742 330.172 289.109 330.198 289.448 330.211V331.254H289.435ZM264.326 317.762C264.326 318.303 264.19 318.779 263.904 319.204C263.619 319.629 263.184 319.835 262.6 319.835C261.975 319.835 261.486 319.68 261.146 319.372C260.82 319.063 260.643 318.715 260.643 318.342C260.643 318.11 260.657 317.904 260.698 317.711C260.739 317.518 260.779 317.325 260.806 317.132C260.277 317.132 259.665 317.338 258.972 317.737C258.266 318.136 257.681 318.715 257.179 319.462V328.679C257.179 329.052 257.26 329.348 257.41 329.593C257.559 329.837 257.804 330.005 258.13 330.121C258.402 330.237 258.768 330.314 259.217 330.365C259.665 330.417 260.046 330.455 260.372 330.481V331.537H251.54V330.481C251.798 330.455 252.07 330.443 252.355 330.417C252.627 330.391 252.871 330.352 253.075 330.288C253.388 330.185 253.632 330.031 253.782 329.786C253.931 329.541 254.013 329.232 254.013 328.846V319.101C254.013 318.779 253.931 318.445 253.768 318.123C253.605 317.801 253.374 317.544 253.075 317.35C252.858 317.222 252.613 317.132 252.314 317.067C252.015 317.003 251.703 316.964 251.363 316.951V315.896L256.948 315.535L257.179 315.754V317.955H257.26C257.953 317.093 258.728 316.424 259.584 315.986C260.44 315.535 261.214 315.316 261.921 315.316C262.627 315.316 263.198 315.535 263.646 315.973C264.095 316.411 264.312 316.99 264.312 317.737L264.326 317.762ZM238.55 322.822C237.586 323.092 236.743 323.349 236.01 323.607C235.276 323.864 234.61 324.186 233.985 324.572C233.414 324.933 232.966 325.37 232.64 325.86C232.314 326.362 232.137 326.941 232.137 327.636C232.137 328.524 232.382 329.168 232.871 329.593C233.36 330.005 233.985 330.224 234.746 330.224C235.548 330.224 236.254 330.043 236.866 329.67C237.477 329.31 237.993 328.872 238.401 328.357L238.537 322.834L238.55 322.822ZM244.475 331.266C243.931 331.447 243.469 331.601 243.061 331.704C242.654 331.82 242.205 331.871 241.689 331.871C240.806 331.871 240.086 331.678 239.57 331.292C239.04 330.906 238.7 330.339 238.55 329.58H238.442C237.722 330.352 236.934 330.932 236.091 331.331C235.249 331.73 234.243 331.936 233.061 331.936C231.811 331.936 230.792 331.575 229.991 330.842C229.189 330.121 228.781 329.168 228.781 327.997C228.781 327.392 228.876 326.851 229.053 326.362C229.23 325.885 229.501 325.448 229.868 325.061C230.154 324.74 230.52 324.456 230.982 324.212C231.444 323.967 231.879 323.761 232.287 323.607C232.789 323.427 233.822 323.092 235.371 322.603C236.92 322.114 237.966 321.727 238.51 321.457V319.886C238.51 319.745 238.483 319.487 238.415 319.088C238.347 318.689 238.224 318.329 238.021 317.968C237.79 317.569 237.477 317.235 237.056 316.938C236.635 316.655 236.05 316.501 235.29 316.501C234.773 316.501 234.284 316.578 233.836 316.745C233.387 316.913 233.075 317.08 232.898 317.26C232.898 317.479 232.953 317.788 233.061 318.2C233.17 318.612 233.224 318.998 233.224 319.346C233.224 319.719 233.048 320.054 232.694 320.363C232.341 320.672 231.852 320.826 231.227 320.826C230.67 320.826 230.249 320.633 229.991 320.26C229.732 319.886 229.596 319.462 229.596 318.998C229.596 318.509 229.787 318.046 230.154 317.595C230.52 317.144 230.996 316.745 231.594 316.398C232.097 316.102 232.722 315.844 233.442 315.638C234.162 315.432 234.868 315.329 235.561 315.329C236.512 315.329 237.341 315.394 238.048 315.51C238.754 315.625 239.406 315.896 239.977 316.295C240.548 316.694 240.983 317.222 241.282 317.904C241.58 318.586 241.73 319.449 241.73 320.517C241.73 322.036 241.716 323.388 241.676 324.572C241.648 325.744 241.621 327.031 241.621 328.434C241.621 328.846 241.703 329.181 241.852 329.425C242.002 329.67 242.246 329.876 242.559 330.056C242.735 330.146 242.994 330.198 243.36 330.211C243.727 330.211 244.108 330.224 244.488 330.224V331.254L244.475 331.266ZM219.039 309.318C219.039 309.935 218.822 310.463 218.401 310.914C217.979 311.364 217.463 311.596 216.838 311.596C216.267 311.596 215.765 311.377 215.343 310.94C214.922 310.515 214.705 310.013 214.705 309.459C214.705 308.867 214.922 308.352 215.343 307.914C215.765 307.477 216.267 307.258 216.838 307.258C217.477 307.258 218.007 307.464 218.414 307.876C218.822 308.288 219.026 308.764 219.026 309.305L219.039 309.318ZM221.159 331.55H213.061V330.494C213.319 330.468 213.591 330.455 213.862 330.43C214.134 330.404 214.379 330.365 214.583 330.301C214.895 330.198 215.14 330.043 215.289 329.799C215.452 329.554 215.52 329.245 215.52 328.859V319.114C215.52 318.779 215.439 318.458 215.275 318.174C215.112 317.891 214.895 317.659 214.596 317.466C214.379 317.338 214.08 317.222 213.672 317.144C213.278 317.054 212.911 317.003 212.572 316.977V315.922L218.468 315.561L218.699 315.78V328.653C218.699 329.026 218.781 329.335 218.93 329.58C219.093 329.825 219.324 330.005 219.651 330.121C219.895 330.211 220.14 330.288 220.384 330.352C220.615 330.417 220.887 330.455 221.172 330.468V331.524L221.159 331.55ZM205.52 331.55H197.381V330.494C197.639 330.468 197.911 330.455 198.21 330.417C198.509 330.391 198.74 330.352 198.944 330.301C199.256 330.198 199.487 330.043 199.65 329.799C199.8 329.554 199.881 329.245 199.881 328.859V310.566C199.881 310.18 199.8 309.82 199.623 309.485C199.446 309.15 199.215 308.88 198.93 308.7C198.726 308.571 198.359 308.455 197.816 308.339C197.272 308.236 196.851 308.172 196.511 308.146V307.103L202.816 306.743L203.047 306.988V328.666C203.047 329.039 203.128 329.348 203.264 329.593C203.414 329.837 203.645 330.018 203.957 330.146C204.202 330.262 204.446 330.339 204.677 330.391C204.922 330.442 205.194 330.481 205.493 330.507V331.562L205.52 331.55ZM190.153 331.55H182.014V330.494C182.272 330.468 182.544 330.455 182.843 330.417C183.142 330.391 183.373 330.352 183.576 330.301C183.889 330.198 184.12 330.043 184.283 329.799C184.432 329.554 184.514 329.245 184.514 328.859V310.566C184.514 310.18 184.432 309.82 184.256 309.485C184.079 309.15 183.848 308.88 183.563 308.7C183.359 308.571 182.992 308.455 182.449 308.339C181.905 308.236 181.484 308.172 181.144 308.146V307.103L187.449 306.743L187.68 306.988V328.666C187.68 329.039 187.761 329.348 187.897 329.593C188.047 329.837 188.278 330.018 188.59 330.146C188.835 330.262 189.079 330.339 189.31 330.391C189.555 330.442 189.826 330.481 190.125 330.507V331.562L190.153 331.55ZM172.72 309.318C172.72 309.935 172.503 310.463 172.081 310.914C171.66 311.364 171.144 311.596 170.519 311.596C169.948 311.596 169.446 311.377 169.024 310.94C168.603 310.515 168.386 310.013 168.386 309.459C168.386 308.867 168.603 308.352 169.024 307.914C169.446 307.477 169.948 307.258 170.519 307.258C171.171 307.258 171.687 307.464 172.095 307.876C172.503 308.288 172.706 308.764 172.706 309.305L172.72 309.318ZM174.826 331.55H166.728V330.494C166.986 330.468 167.258 330.455 167.53 330.43C167.801 330.404 168.046 330.365 168.25 330.301C168.562 330.198 168.807 330.043 168.956 329.799C169.119 329.554 169.187 329.245 169.187 328.859V319.114C169.187 318.779 169.106 318.458 168.943 318.174C168.78 317.891 168.562 317.659 168.263 317.466C168.046 317.338 167.747 317.222 167.34 317.144C166.945 317.054 166.579 317.003 166.239 316.977V315.922L172.136 315.561L172.367 315.78V328.653C172.367 329.026 172.448 329.335 172.598 329.58C172.747 329.825 172.992 330.005 173.318 330.121C173.562 330.211 173.807 330.288 174.038 330.352C174.269 330.417 174.541 330.455 174.826 330.468V331.524V331.55ZM154.35 324.791C154.35 323.452 153.875 322.345 152.923 321.496C151.972 320.633 150.614 320.195 148.834 320.195C148.114 320.195 147.502 320.195 147.013 320.221C146.51 320.234 146.143 320.247 145.899 320.26V328.241C145.899 328.911 146.184 329.413 146.755 329.76C147.339 330.095 148.141 330.262 149.16 330.262C150.845 330.262 152.122 329.799 153.019 328.872C153.902 327.945 154.35 326.581 154.35 324.791ZM152.027 317.531C152.448 317.067 152.733 316.565 152.896 316.025C153.059 315.484 153.141 314.827 153.141 314.081C153.141 312.832 152.788 311.841 152.067 311.133C151.347 310.412 150.206 310.064 148.657 310.064C148.29 310.064 147.842 310.064 147.298 310.09C146.755 310.103 146.293 310.116 145.912 310.129V318.882H148.059C148.983 318.882 149.785 318.766 150.437 318.548C151.089 318.329 151.619 317.981 152.04 317.531H152.027ZM156.103 320.968C156.796 321.418 157.38 321.998 157.842 322.731C158.304 323.452 158.535 324.328 158.535 325.37C158.535 326.413 158.29 327.34 157.815 328.125C157.326 328.898 156.701 329.541 155.926 330.043C155.165 330.533 154.309 330.906 153.358 331.163C152.407 331.421 151.429 331.55 150.41 331.55H139.051V330.404C139.323 330.378 139.717 330.339 140.233 330.262C140.749 330.185 141.116 330.108 141.347 330.018C141.7 329.863 141.945 329.67 142.094 329.413C142.244 329.155 142.312 328.833 142.312 328.447V312.124C142.312 311.763 142.244 311.442 142.122 311.171C141.986 310.888 141.727 310.669 141.347 310.502C141.007 310.335 140.627 310.219 140.206 310.129C139.785 310.051 139.431 309.987 139.146 309.974V308.828H150.26C151.116 308.828 151.945 308.906 152.72 309.073C153.508 309.227 154.255 309.511 154.962 309.923C155.627 310.296 156.184 310.811 156.606 311.455C157.04 312.098 157.258 312.883 157.258 313.797C157.258 314.596 157.108 315.316 156.796 315.934C156.497 316.565 156.062 317.106 155.505 317.544C154.989 317.968 154.391 318.342 153.725 318.625C153.046 318.921 152.326 319.153 151.551 319.307V319.449C152.244 319.526 153.005 319.68 153.861 319.938C154.703 320.195 155.478 320.543 156.13 320.994L156.103 320.968Z" fill="#E8E2D8"/>
<path fill-rule="evenodd" clip-rule="evenodd" d="M136.906 0.411942L4.07619 0C1.83428 0 0 1.73788 0 3.87483V6.41085C0 8.53493 1.83428 10.2728 4.07619 10.2728L136.906 9.86087V0.411942ZM436.193 1.35169L146.376 0.450562V9.82225L436.193 8.92113V1.35169ZM445.011 8.89538C446.655 8.89538 448 7.62093 448 6.06328V4.20954C448 2.65188 446.655 1.37743 445.011 1.37743H440.867V8.89538H445.011Z" fill="#E8E2D8"/>
</svg>
