<svg xmlns="http://www.w3.org/2000/svg" xmlns:xlink="http://www.w3.org/1999/xlink"><defs><style>
    .sprite-symbol-usage {display: none;}
    .sprite-symbol-usage:target {display: inline;}
  </style><symbol viewBox="0 0 42 42" fill="none" id="icon-arrow">
<path d="M40 12V41.5" stroke="#262523" stroke-width="4" />
<path d="M12 40H42" stroke="#262523" stroke-width="4" />
<path d="M2 2L40.5 40.5" stroke="#262523" stroke-width="4" />
</symbol><symbol viewBox="0 0 15 24" id="icon-arrow-slim">
<path d="M0.17 21.17L3 24L15 12L3 0L0.17 2.83L9.34 12L0.17 21.17Z" />
</symbol><symbol viewBox="0 0 27 27" id="icon-ball">
<path fill-rule="evenodd" clip-rule="evenodd" d="M2.04288 12.5H6.87594C6.79071 11.8808 6.62647 11.2737 6.38623 10.6937C6.01769 9.80393 5.47752 8.99551 4.79656 8.31455C4.46863 7.98662 4.11115 7.69135 3.72926 7.43217C2.79895 8.92702 2.20215 10.651 2.04288 12.5ZM4.93046 5.83087C5.38721 6.14767 5.81584 6.5054 6.21077 6.90034C7.07745 7.76702 7.76494 8.79592 8.23399 9.92829C8.57495 10.7514 8.79562 11.6175 8.89072 12.5H10.0278C10.5801 12.5 11.0278 12.9477 11.0278 13.5C11.0278 14.0523 10.5801 14.5 10.0278 14.5H8.89072C8.79562 15.3825 8.57495 16.2486 8.23399 17.0717C7.76494 18.2041 7.07745 19.233 6.21077 20.0997C5.81584 20.4946 5.38721 20.8523 4.93046 21.1691C7.03612 23.5204 10.0953 25 13.5 25C16.9047 25 19.9639 23.5204 22.0695 21.1691C21.6128 20.8523 21.1841 20.4946 20.7892 20.0997C19.9225 19.233 19.235 18.2041 18.766 17.0717C18.425 16.2486 18.2043 15.3825 18.1092 14.5H14.5V21.8333C14.5 22.3856 14.0523 22.8333 13.5 22.8333C12.9477 22.8333 12.5 22.3856 12.5 21.8333V2.04288C9.49918 2.30136 6.82776 3.71226 4.93046 5.83087ZM14.5 2.04288V12.5H18.1092C18.2043 11.6176 18.425 10.7514 18.766 9.92829C19.235 8.79592 19.9225 7.76702 20.7892 6.90034C21.1841 6.5054 21.6128 6.14767 22.0695 5.83086C20.1722 3.71226 17.5008 2.30136 14.5 2.04288ZM23.2707 7.43215C22.8888 7.69134 22.5313 7.98662 22.2034 8.31456C21.5224 8.99552 20.9823 9.80394 20.6137 10.6937C20.3735 11.2737 20.2093 11.8808 20.124 12.5H24.9571C24.7979 10.651 24.201 8.92701 23.2707 7.43215ZM24.9571 14.5H20.124C20.2093 15.1192 20.3735 15.7264 20.6137 16.3064C20.9823 17.1961 21.5224 18.0045 22.2034 18.6855C22.5313 19.0134 22.8888 19.3087 23.2707 19.5679C24.201 18.073 24.7979 16.349 24.9571 14.5ZM3.72926 19.5678C4.11115 19.3087 4.46863 19.0134 4.79656 18.6854C5.47752 18.0045 6.01769 17.1961 6.38623 16.3063C6.62647 15.7263 6.79071 15.1192 6.87594 14.5H2.04288C2.20215 16.349 2.79895 18.073 3.72926 19.5678ZM0 13.5C0 6.04416 6.04416 0 13.5 0C20.9558 0 27 6.04416 27 13.5C27 20.9558 20.9558 27 13.5 27C6.04416 27 0 20.9558 0 13.5Z" />
</symbol><symbol viewBox="0 0 24 24" fill="none" id="icon-close">
<g clip-path="url(#icon-close_clip0_89_612)">
<path d="M19 6.415L17.585 5L12 10.585L6.415 5L5 6.415L10.585 12L5 17.585L6.415 19L12 13.415L17.585 19L19 17.585L13.415 12L19 6.415Z" fill="#E8E2D8" />
</g>
<defs>

</defs>
</symbol><clipPath id="icon-close_clip0_89_612">
<rect width="24" height="24" fill="white" />
</clipPath><symbol viewBox="0 0 42 36" fill="none" id="icon-diamond">
    <path d="M42 10.8271C35.3684 20.2105 23 33.4286 20.5 36L0 10.8271L6.63158 0H35.3684L42 10.8271Z" fill="#E8E2D8" />
</symbol><symbol viewBox="0 0 60 60" fill="none" id="icon-telegram">
<path fill-rule="evenodd" clip-rule="evenodd" d="M60 30C60 46.5685 46.5685 60 30 60C13.4315 60 0 46.5685 0 30C0 13.4315 13.4315 0 30 0C46.5685 0 60 13.4315 60 30ZM20.0894 27.2519C17.0841 28.564 13.9964 29.9123 11.1728 31.4675C9.69846 32.547 11.658 33.3106 13.4964 34.0269C13.7886 34.1408 14.0778 34.2534 14.3496 34.3659C14.5759 34.4355 14.8059 34.5088 15.039 34.583C17.0836 35.2344 19.3634 35.9608 21.3484 34.8681C24.6091 32.995 27.6863 30.8295 30.7611 28.6656C31.7685 27.9566 32.7756 27.2479 33.7889 26.5496C33.8364 26.5193 33.8899 26.4845 33.9485 26.4466C34.8116 25.887 36.753 24.6286 36.0349 26.3626C34.3369 28.2196 32.518 29.8634 30.6894 31.5163C29.4569 32.6301 28.2199 33.7481 27.0124 34.9381C25.9608 35.7926 24.8686 37.511 26.0462 38.7076C28.7586 40.6064 31.5134 42.4591 34.2665 44.3109C35.1624 44.9134 36.0583 45.5159 36.9523 46.1199C38.4675 47.3296 40.8356 46.351 41.1688 44.4606C41.3169 43.591 41.4656 42.7215 41.6144 41.8519C42.4364 37.046 43.2586 32.2384 43.985 27.4169C44.0837 26.6605 44.1956 25.9042 44.3076 25.1476C44.579 23.3137 44.8508 21.4776 44.9356 19.6339C44.7169 17.7939 42.4859 18.1985 41.2444 18.6122C34.8629 21.0405 28.5451 23.6488 22.2524 26.303C21.5395 26.6187 20.8169 26.9342 20.0894 27.2519Z" fill="#091E05" />
</symbol><symbol viewBox="0 0 32 32" fill="none" id="icon-time">
<g clip-path="url(#icon-time_clip0_230_1301)">
<path d="M15.9946 2.66675C8.62797 2.66675 2.66797 8.63341 2.66797 16.0001C2.66797 23.3667 8.62797 29.3334 15.9946 29.3334C23.3613 29.3334 29.3346 23.3667 29.3346 16.0001C29.3346 8.63341 23.3613 2.66675 15.9946 2.66675ZM16.0013 26.6667C10.108 26.6667 5.33464 21.8934 5.33464 16.0001C5.33464 10.1067 10.108 5.33341 16.0013 5.33341C21.8946 5.33341 26.668 10.1067 26.668 16.0001C26.668 21.8934 21.8946 26.6667 16.0013 26.6667Z" fill="#091E05" />
<path d="M16.668 9.33325H14.668V17.3333L21.6613 21.5333L22.668 19.8933L16.668 16.3333V9.33325Z" fill="#091E05" />
</g>
<defs>

</defs>
</symbol><clipPath id="icon-time_clip0_230_1301">
<rect width="32" height="32" fill="white" />
</clipPath><symbol viewBox="0 0 48 48" fill="none" id="icon-vk">
<path fill-rule="evenodd" clip-rule="evenodd" d="M16.6323 0H31.3677C44.8158 0 48 3.18419 48 16.6323V31.3677C48 44.8158 44.8158 48 31.3677 48H16.6323C3.18419 48 0 44.8158 0 31.3677V16.6323C0 3.18419 3.18419 0 16.6323 0Z" fill="#4680C2" />
<path fill-rule="evenodd" clip-rule="evenodd" d="M39.2322 15.3211C39.4693 14.5759 39.2322 14.0339 38.1821 14.0339H34.693C33.8123 14.0339 33.4058 14.5081 33.1687 15.0163C33.1687 15.0163 31.3733 19.3522 28.8666 22.1637C28.0536 22.9767 27.681 23.2477 27.2407 23.2477C27.0035 23.2477 26.6987 22.9767 26.6987 22.2315V15.2872C26.6987 14.4065 26.4277 14 25.6824 14H20.1948C19.6528 14 19.3141 14.4065 19.3141 14.813C19.3141 15.6599 20.5674 15.8631 20.7029 18.2343V23.3832C20.7029 24.5011 20.4997 24.7043 20.0593 24.7043C18.8737 24.7043 15.9944 20.3345 14.2668 15.355C13.928 14.3726 13.5893 14 12.7086 14H9.18559C8.16938 14 8 14.4743 8 14.9824C8 15.897 9.18559 20.5039 13.5215 26.6013C16.4009 30.7678 20.4997 33.0035 24.192 33.0035C26.4277 33.0035 26.6987 32.4954 26.6987 31.6486V28.4983C26.6987 27.482 26.9019 27.3127 27.6133 27.3127C28.1214 27.3127 29.036 27.5836 31.1023 29.5822C33.4735 31.9534 33.88 33.0374 35.2011 33.0374H38.6902C39.7064 33.0374 40.1807 32.5293 39.9097 31.5469C39.6048 30.5646 38.4531 29.1419 36.9626 27.4481C36.1496 26.4997 34.9301 25.4496 34.5575 24.9414C34.0494 24.264 34.1849 23.993 34.5575 23.3832C34.5237 23.3832 38.7918 17.3536 39.2322 15.3211Z" fill="white" />
</symbol><symbol viewBox="0 0 60 60" fill="none" id="icon-vk-green">
<path fill-rule="evenodd" clip-rule="evenodd" d="M0 30C0 13.4315 13.4315 0 30 0C46.5685 0 60 13.4315 60 30C60 46.5685 46.5685 60 30 60C13.4315 60 0 46.5685 0 30ZM31.5693 39.8451C31.5693 39.8451 32.1469 39.7821 32.4427 39.4702C32.7134 39.1845 32.704 38.6452 32.704 38.6452C32.704 38.6452 32.668 36.1272 33.8591 35.7554C35.0329 35.3898 36.5402 38.1905 38.1397 39.2674C39.348 40.0817 40.2651 39.9035 40.2651 39.9035L44.5395 39.8451C44.5395 39.8451 46.7745 39.7099 45.7149 37.9846C45.6272 37.8433 45.0967 36.7079 42.5377 34.3758C39.8566 31.9346 40.2166 32.3294 43.4439 28.1061C45.4097 25.5343 46.1954 23.9642 45.9497 23.2928C45.7165 22.6506 44.2703 22.8212 44.2703 22.8212L39.4591 22.8504C39.4591 22.8504 39.1023 22.8027 38.8378 22.9579C38.5795 23.11 38.412 23.4649 38.412 23.4649C38.412 23.4649 37.6514 25.4544 36.6356 27.1474C34.493 30.7178 33.6369 30.9068 33.2863 30.6856C32.4708 30.1678 32.6743 28.6085 32.6743 27.5008C32.6743 24.0395 33.2096 22.5969 31.6335 22.2235C31.1107 22.0991 30.7257 22.0177 29.3875 22.0038C27.6706 21.9869 26.2182 22.01 25.3949 22.4048C24.8471 22.6675 24.4246 23.2544 24.6828 23.2882C25.0005 23.3297 25.7205 23.4787 26.1024 23.9888C26.5954 24.6478 26.5782 26.1258 26.5782 26.1258C26.5782 26.1258 26.8614 30.2001 25.9161 30.7055C25.2682 31.0528 24.3792 30.3445 22.4681 27.1044C21.4899 25.4452 20.7512 23.6108 20.7512 23.6108C20.7512 23.6108 20.6088 23.2682 20.3537 23.0839C20.0453 22.8611 19.6149 22.792 19.6149 22.792L15.0432 22.8212C15.0432 22.8212 14.3561 22.8396 14.1041 23.133C13.8803 23.3927 14.0869 23.9319 14.0869 23.9319C14.0869 23.9319 17.6664 32.1528 21.72 36.2962C25.4372 40.094 29.6568 39.8451 29.6568 39.8451H31.5693Z" fill="#091E05" />
</symbol><symbol viewBox="0 0 60 60" fill="none" id="icon-whatsapp">
<path fill-rule="evenodd" clip-rule="evenodd" d="M7.99739 42.0811L4.42969 55.1076L17.7604 51.6119C21.4336 53.615 25.5689 54.6707 29.7771 54.6724H29.788C43.6471 54.6724 54.9291 43.3937 54.9352 29.5336C54.9376 22.8159 52.3236 16.5 47.5766 11.7483C42.8281 6.99652 36.5146 4.37877 29.788 4.37549C15.9264 4.37549 4.64633 15.6523 4.64069 29.5133C4.63928 33.9439 5.79696 38.269 7.99739 42.0811ZM8.88663 29.5147C8.89087 17.9944 18.2668 8.62186 29.796 8.62186C35.3791 8.62421 40.6263 10.8001 44.5727 14.7493C48.5191 18.6985 50.6909 23.9486 50.6888 29.5316C50.6841 41.0529 41.3082 50.4264 29.7879 50.4264H29.78C26.0286 50.4245 22.3502 49.4176 19.1418 47.5134L18.378 47.0607L10.4672 49.1349L12.5792 41.425L12.0818 40.6346C9.98973 37.3076 8.88492 33.4625 8.88663 29.5147Z" fill="#091E05" />
<path fill-rule="evenodd" clip-rule="evenodd" d="M23.5032 19.0038C23.0322 17.9577 22.5367 17.9365 22.0893 17.9182C21.7228 17.9026 21.3037 17.9036 20.885 17.9036C20.4658 17.9036 19.7852 18.0609 19.2097 18.6896C18.6337 19.3184 17.0102 20.8383 17.0102 23.9298C17.0102 27.0214 19.262 30.0083 19.5756 30.428C19.8898 30.8472 23.9223 37.3938 30.3093 39.9122C35.6169 42.0053 36.6968 41.5889 37.8493 41.4843C39.0014 41.3798 41.5668 39.9645 42.0901 38.4974C42.6138 37.0302 42.6138 35.7732 42.457 35.5104C42.2997 35.248 41.881 35.0912 41.2522 34.7771C40.6239 34.4629 37.5347 32.9426 36.9587 32.733C36.3827 32.5234 35.964 32.4188 35.5448 33.0476C35.1261 33.6764 33.9227 35.0912 33.5558 35.5104C33.1894 35.93 32.823 35.9823 32.1942 35.6682C31.5659 35.3531 29.5421 34.6904 27.1415 32.5498C25.2736 30.8844 24.0128 28.8276 23.6459 28.1988C23.2794 27.57 23.6068 27.23 23.9219 26.9168C24.204 26.6351 24.5502 26.183 24.8648 25.8161C25.178 25.4492 25.283 25.1873 25.4921 24.7686C25.7017 24.349 25.5972 23.9821 25.4398 23.6679C25.283 23.3538 24.0618 20.2462 23.5032 19.0038Z" fill="#091E05" />
</symbol></defs><use id="icon-arrow-usage" xlink:href="#icon-arrow" class="sprite-symbol-usage" /><use id="icon-arrow-slim-usage" xlink:href="#icon-arrow-slim" class="sprite-symbol-usage" /><use id="icon-ball-usage" xlink:href="#icon-ball" class="sprite-symbol-usage" /><use id="icon-close-usage" xlink:href="#icon-close" class="sprite-symbol-usage" /><use id="icon-diamond-usage" xlink:href="#icon-diamond" class="sprite-symbol-usage" /><use id="icon-telegram-usage" xlink:href="#icon-telegram" class="sprite-symbol-usage" /><use id="icon-time-usage" xlink:href="#icon-time" class="sprite-symbol-usage" /><use id="icon-vk-usage" xlink:href="#icon-vk" class="sprite-symbol-usage" /><use id="icon-vk-green-usage" xlink:href="#icon-vk-green" class="sprite-symbol-usage" /><use id="icon-whatsapp-usage" xlink:href="#icon-whatsapp" class="sprite-symbol-usage" /></svg>