<svg width="60" height="60" viewBox="0 0 60 60" fill="none" xmlns="http://www.w3.org/2000/svg">
<path fill-rule="evenodd" clip-rule="evenodd" d="M7.99739 42.0811L4.42969 55.1076L17.7604 51.6119C21.4336 53.615 25.5689 54.6707 29.7771 54.6724H29.788C43.6471 54.6724 54.9291 43.3937 54.9352 29.5336C54.9376 22.8159 52.3236 16.5 47.5766 11.7483C42.8281 6.99652 36.5146 4.37877 29.788 4.37549C15.9264 4.37549 4.64633 15.6523 4.64069 29.5133C4.63928 33.9439 5.79696 38.269 7.99739 42.0811ZM8.88663 29.5147C8.89087 17.9944 18.2668 8.62186 29.796 8.62186C35.3791 8.62421 40.6263 10.8001 44.5727 14.7493C48.5191 18.6985 50.6909 23.9486 50.6888 29.5316C50.6841 41.0529 41.3082 50.4264 29.7879 50.4264H29.78C26.0286 50.4245 22.3502 49.4176 19.1418 47.5134L18.378 47.0607L10.4672 49.1349L12.5792 41.425L12.0818 40.6346C9.98973 37.3076 8.88492 33.4625 8.88663 29.5147Z" fill="#091E05"/>
<path fill-rule="evenodd" clip-rule="evenodd" d="M23.5032 19.0038C23.0322 17.9577 22.5367 17.9365 22.0893 17.9182C21.7228 17.9026 21.3037 17.9036 20.885 17.9036C20.4658 17.9036 19.7852 18.0609 19.2097 18.6896C18.6337 19.3184 17.0102 20.8383 17.0102 23.9298C17.0102 27.0214 19.262 30.0083 19.5756 30.428C19.8898 30.8472 23.9223 37.3938 30.3093 39.9122C35.6169 42.0053 36.6968 41.5889 37.8493 41.4843C39.0014 41.3798 41.5668 39.9645 42.0901 38.4974C42.6138 37.0302 42.6138 35.7732 42.457 35.5104C42.2997 35.248 41.881 35.0912 41.2522 34.7771C40.6239 34.4629 37.5347 32.9426 36.9587 32.733C36.3827 32.5234 35.964 32.4188 35.5448 33.0476C35.1261 33.6764 33.9227 35.0912 33.5558 35.5104C33.1894 35.93 32.823 35.9823 32.1942 35.6682C31.5659 35.3531 29.5421 34.6904 27.1415 32.5498C25.2736 30.8844 24.0128 28.8276 23.6459 28.1988C23.2794 27.57 23.6068 27.23 23.9219 26.9168C24.204 26.6351 24.5502 26.183 24.8648 25.8161C25.178 25.4492 25.283 25.1873 25.4921 24.7686C25.7017 24.349 25.5972 23.9821 25.4398 23.6679C25.283 23.3538 24.0618 20.2462 23.5032 19.0038Z" fill="#091E05"/>
</svg>
