<svg width="32" height="32" viewBox="0 0 32 32" fill="none" xmlns="http://www.w3.org/2000/svg">
<g clip-path="url(#clip0_230_1301)">
<path d="M15.9946 2.66675C8.62797 2.66675 2.66797 8.63341 2.66797 16.0001C2.66797 23.3667 8.62797 29.3334 15.9946 29.3334C23.3613 29.3334 29.3346 23.3667 29.3346 16.0001C29.3346 8.63341 23.3613 2.66675 15.9946 2.66675ZM16.0013 26.6667C10.108 26.6667 5.33464 21.8934 5.33464 16.0001C5.33464 10.1067 10.108 5.33341 16.0013 5.33341C21.8946 5.33341 26.668 10.1067 26.668 16.0001C26.668 21.8934 21.8946 26.6667 16.0013 26.6667Z" fill="#091E05"/>
<path d="M16.668 9.33325H14.668V17.3333L21.6613 21.5333L22.668 19.8933L16.668 16.3333V9.33325Z" fill="#091E05"/>
</g>
<defs>
<clipPath id="clip0_230_1301">
<rect width="32" height="32" fill="white"/>
</clipPath>
</defs>
</svg>
